<svg width="431" height="431" viewBox="0 0 431 431" fill="none" xmlns="http://www.w3.org/2000/svg">
<path d="M215.5 421.133C328.811 421.133 420.668 366.49 420.668 299.086C420.668 231.681 328.811 177.038 215.5 177.038C102.189 177.038 10.332 231.681 10.332 299.086C10.332 366.49 102.189 421.133 215.5 421.133Z" fill="white"/>
<path d="M326.229 292.348L393.868 253.337C396.538 251.795 396.538 249.296 393.868 247.753L296.271 191.297C293.601 189.755 289.27 189.755 286.6 191.297L218.964 230.307C216.293 231.849 216.293 234.348 218.964 235.891L316.558 292.349C319.229 293.89 323.559 293.89 326.229 292.348Z" fill="#E0E0E0"/>
<path d="M154.121 387.556L52.7714 329.132C49.9173 327.484 49.9173 324.813 52.7714 323.165L193.77 241.749C196.625 240.101 201.252 240.101 204.106 241.749L305.453 300.172C308.307 301.819 308.307 304.491 305.453 306.138L164.456 387.556C161.602 389.204 156.975 389.204 154.121 387.556Z" fill="#E0E0E0"/>
<path d="M98.164 379.529C86.9934 385.979 68.8828 385.979 57.713 379.529C46.5423 373.08 46.5423 362.624 57.713 356.174C68.8836 349.725 86.9942 349.725 98.164 356.174C109.335 362.624 109.335 373.08 98.164 379.529Z" fill="#E0E0E0"/>
<path d="M209.07 378.257C209.1 378.217 209.134 378.178 209.168 378.144L214.268 372.538C214.268 372.534 214.272 372.529 214.278 372.524L214.317 372.481C214.347 372.446 214.379 372.413 214.41 372.381L214.465 372.322L214.467 372.326C215.196 371.627 216.353 371.567 217.659 372.322C219.866 373.595 221.655 376.693 221.655 379.241C221.655 380.72 221.049 381.683 220.112 381.987L220.115 381.991L220.054 382.004C219.961 382.032 219.864 382.053 219.764 382.067L219.701 382.081C219.696 382.081 219.687 382.081 219.681 382.086L212.292 383.699C211.923 383.782 211.48 383.694 211.004 383.418C209.74 382.691 208.717 380.92 208.717 379.465C208.716 378.94 208.844 378.537 209.07 378.257Z" fill="#E0E0E0"/>
<path d="M328.508 326.647L220.959 388.808L206.06 391.838C205.679 391.916 205.382 391.513 205.567 391.172L210.233 382.615L317.796 320.447C320.733 318.75 330.811 325.317 328.508 326.647Z" fill="#E0E0E0"/>
<path d="M267.303 377.417C268.384 380.352 271.514 382.175 276.733 382.862L369.9 328.6L379.571 318.802C380.126 318.241 379.551 317.314 378.802 317.562L361 323.461L267.303 377.417Z" fill="#E0E0E0"/>
<path d="M379.926 250.62L319.938 284.494L227.816 231.631L287.798 197.753L379.926 250.62Z" fill="#2980B9"/>
<path opacity="0.6" d="M379.926 250.62L319.938 284.494L227.816 231.631L287.798 197.753L379.926 250.62Z" fill="black"/>
<path d="M319.287 282.017L377.253 249.086C375.813 244.999 375.921 243.759 377.551 238.319L319.938 270.915C319.938 270.915 318.89 270.839 319.287 282.017Z" fill="#F5F5F5"/>
<path d="M322.749 266.45C319.824 268.129 317.454 272.211 317.453 275.569V282.692C317.453 286.05 319.824 287.411 322.749 285.732L379.918 253.258L379.925 250.62L323.48 282.482C321.725 283.489 320.305 282.672 320.306 280.658L320.356 274.314C320.358 272.3 321.782 269.851 323.538 268.843L379.919 236.967V233.976L322.749 266.45Z" fill="#2980B9"/>
<path opacity="0.5" d="M322.749 266.45C319.824 268.129 317.454 272.211 317.453 275.569V282.692C317.453 286.05 319.824 287.411 322.749 285.732L379.918 253.258L379.925 250.62L323.48 282.482C321.725 283.489 320.305 282.672 320.306 280.658L320.356 274.314C320.358 272.3 321.782 269.851 323.538 268.843L379.919 236.967V233.976L322.749 266.45Z" fill="black"/>
<path d="M379.92 233.982L287.797 181.118L230.632 213.589C227.709 215.266 225.336 219.352 225.336 222.707L225.334 229.833C225.337 231.506 225.924 232.685 226.887 233.237L319.009 286.101C318.046 285.548 317.459 284.369 317.456 282.697L317.448 275.565C317.448 272.21 319.82 268.124 322.743 266.447L379.92 233.982Z" fill="#2980B9"/>
<path opacity="0.35" d="M379.92 233.982L287.797 181.118L230.632 213.589C227.709 215.266 225.336 219.352 225.336 222.707L225.334 229.833C225.337 231.506 225.924 232.685 226.887 233.237L319.009 286.101C318.046 285.548 317.459 284.369 317.456 282.697L317.448 275.565C317.448 272.21 319.82 268.124 322.743 266.447L379.92 233.982Z" fill="black"/>
<path d="M319 270.378C318.042 272.028 317.449 273.888 317.449 275.565L317.457 282.697C317.46 284.369 318.047 285.548 319.01 286.101L226.888 233.237C225.925 232.684 225.338 231.506 225.335 229.833L225.337 222.707C225.337 221.029 225.93 219.17 226.888 217.519L319 270.378Z" fill="#2980B9"/>
<path opacity="0.45" d="M319 270.378C318.042 272.028 317.449 273.888 317.449 275.565L317.457 282.697C317.46 284.369 318.047 285.548 319.01 286.101L226.888 233.237C225.925 232.684 225.338 231.506 225.335 229.833L225.337 222.707C225.337 221.029 225.93 219.17 226.888 217.519L319 270.378Z" fill="black"/>
<path d="M239.331 224.586C237.615 232.042 237.639 234.954 239.33 240.422L243.716 242.954C242.025 237.486 242 234.573 243.717 227.117L239.331 224.586Z" fill="#2980B9"/>
<path d="M299.753 259.305C298.037 266.761 298.061 269.579 299.752 275.048L304.138 277.58C302.447 272.111 302.422 269.292 304.139 261.837L299.753 259.305Z" fill="#2980B9"/>
<path d="M392.026 233.093L332.038 266.967L239.916 214.104L299.898 180.226L392.026 233.093Z" fill="#2980B9"/>
<path opacity="0.4" d="M392.026 233.093L332.038 266.967L239.916 214.104L299.898 180.226L392.026 233.093Z" fill="black"/>
<path d="M331.386 264.49L389.352 231.559C387.913 227.472 388.021 225.644 389.651 220.204L332.037 252.801C332.037 252.801 330.991 253.312 331.386 264.49Z" fill="#F5F5F5"/>
<path d="M334.85 248.334C331.925 250.014 329.555 254.095 329.554 257.453V265.164C329.554 268.523 331.925 269.883 334.85 268.204L392.019 235.73L392.025 233.092L335.581 264.954C333.826 265.961 332.405 265.144 332.407 263.13L332.457 256.198C332.459 254.184 333.883 251.735 335.639 250.727L392.019 218.851V215.859L334.85 248.334Z" fill="#2980B9"/>
<path opacity="0.25" d="M334.85 248.334C331.925 250.014 329.555 254.095 329.554 257.453V265.164C329.554 268.523 331.925 269.883 334.85 268.204L392.019 235.73L392.025 233.092L335.581 264.954C333.826 265.961 332.405 265.144 332.407 263.13L332.457 256.198C332.459 254.184 333.883 251.735 335.639 250.727L392.019 218.851V215.859L334.85 248.334Z" fill="black"/>
<path d="M392.02 215.867L299.898 163.003L242.732 195.474C239.809 197.151 237.436 201.237 237.436 204.592L237.435 212.306C237.438 213.979 238.024 215.158 238.988 215.71L331.11 268.574C330.146 268.021 329.56 266.842 329.557 265.17L329.549 257.449C329.549 254.094 331.921 250.008 334.844 248.331L392.02 215.867Z" fill="#2980B9"/>
<path d="M331.1 252.262C330.143 253.912 329.55 255.772 329.55 257.449L329.557 265.17C329.561 266.842 330.147 268.021 331.111 268.574L238.989 215.71C238.025 215.157 237.439 213.979 237.436 212.306L237.437 204.592C237.437 202.914 238.03 201.055 238.989 199.404L331.1 252.262Z" fill="#2980B9"/>
<path opacity="0.15" d="M331.1 252.262C330.143 253.912 329.55 255.772 329.55 257.449L329.557 265.17C329.561 266.842 330.147 268.021 331.111 268.574L238.989 215.71C238.025 215.157 237.439 213.979 237.436 212.306L237.437 204.592C237.437 202.914 238.03 201.055 238.989 199.404L331.1 252.262Z" fill="black"/>
<path d="M251.431 206.47C249.715 213.926 249.74 217.427 251.43 222.895L255.815 225.427C254.124 219.959 254.1 216.458 255.816 209.001L251.431 206.47Z" fill="#2980B9"/>
<path d="M311.854 241.233C310.138 248.689 310.162 252.066 311.854 257.534L316.239 260.065C314.547 254.597 314.523 251.198 316.239 243.743L311.854 241.233Z" fill="#2980B9"/>
<g opacity="0.4">
<path d="M251.431 206.47C249.715 213.926 249.74 217.427 251.43 222.895L255.815 225.427C254.124 219.959 254.1 216.458 255.816 209.001L251.431 206.47Z" fill="white"/>
<path d="M311.854 241.233C310.138 248.689 310.162 252.066 311.854 257.534L316.239 260.065C314.547 254.597 314.523 251.198 316.239 243.743L311.854 241.233Z" fill="white"/>
</g>
<path d="M67.665 326.188L160.839 379.123L295.988 301.547L202.821 248.609L67.665 326.188Z" fill="#2980B9"/>
<path opacity="0.4" d="M67.665 326.188L160.839 379.123L295.988 301.547L202.821 248.609L67.665 326.188Z" fill="black"/>
<path d="M161.535 376.476L70.5212 324.549C72.0599 320.182 71.9444 318.228 70.2031 312.415L160.841 363.986C160.841 363.986 161.96 364.531 161.535 376.476Z" fill="#F5F5F5"/>
<path d="M157.836 359.213C160.96 361.007 163.495 365.369 163.495 368.958V377.198C163.495 380.787 160.961 382.24 157.835 380.447L67.6729 329.007L67.666 326.188L157.055 376.973C158.93 378.049 160.448 377.177 160.447 375.024L160.393 367.617C160.391 365.465 158.87 362.847 156.993 361.77L67.6729 310.97V307.774L157.836 359.213Z" fill="#2980B9"/>
<path opacity="0.3" d="M157.836 359.213C160.96 361.007 163.495 365.369 163.495 368.958V377.198C163.495 380.787 160.961 382.24 157.835 380.447L67.6729 329.007L67.666 326.188L157.055 376.973C158.93 378.049 160.448 377.177 160.447 375.024L160.393 367.617C160.391 365.465 158.87 362.847 156.993 361.77L67.6729 310.97V307.774L157.836 359.213Z" fill="black"/>
<path d="M67.6719 307.781L202.821 230.203L292.98 281.639C296.104 283.432 298.639 287.797 298.639 291.383L298.64 299.626C298.637 301.413 298.01 302.673 296.981 303.264L161.832 380.841C162.861 380.25 163.487 378.99 163.491 377.203L163.5 368.953C163.5 365.368 160.964 361.003 157.841 359.21L67.6719 307.781Z" fill="#2980B9"/>
<path opacity="0.2" d="M67.6719 307.781L202.821 230.203L292.98 281.639C296.104 283.432 298.639 287.797 298.639 291.383L298.64 299.626C298.637 301.413 298.01 302.673 296.981 303.264L161.832 380.841C162.861 380.25 163.487 378.99 163.491 377.203L163.5 368.953C163.5 365.368 160.964 361.003 157.841 359.21L67.6719 307.781Z" fill="black"/>
<path d="M161.842 363.41C162.866 365.173 163.5 367.161 163.5 368.953L163.491 377.203C163.488 378.99 162.861 380.25 161.832 380.841L296.982 303.265C298.011 302.674 298.638 301.414 298.641 299.627L298.639 291.384C298.638 289.591 298.005 287.604 296.981 285.839L161.842 363.41Z" fill="#2980B9"/>
<path d="M161.838 363.407C162.862 365.171 163.496 367.159 163.496 368.951L163.487 377.201C163.484 378.988 162.857 380.248 161.827 380.839L296.977 303.262C298.007 302.671 298.633 301.411 298.637 299.624L298.635 291.381C298.635 289.588 298.001 287.601 296.977 285.837L161.838 363.407Z" fill="#2980B9"/>
<path d="M283.684 293.389C285.518 301.357 285.492 305.098 283.685 310.941L278.999 313.646C280.807 307.803 280.832 304.062 278.998 296.095L283.684 293.389Z" fill="#2980B9"/>
<path d="M182.408 351.603C184.243 359.57 184.217 363.193 182.409 369.036L177.724 371.717C179.531 365.873 179.557 362.256 177.723 354.289L182.408 351.603Z" fill="#2980B9"/>
<g opacity="0.4">
<path d="M283.684 293.389C285.518 301.357 285.492 305.098 283.685 310.941L278.999 313.646C280.807 307.803 280.832 304.062 278.998 296.095L283.684 293.389Z" fill="white"/>
<path d="M182.408 351.603C184.243 359.57 184.217 363.193 182.409 369.036L177.724 371.717C179.531 365.873 179.557 362.256 177.723 354.289L182.408 351.603Z" fill="white"/>
</g>
<path d="M55.7256 308.282L148.9 361.218L284.049 283.642L190.881 230.703L55.7256 308.282Z" fill="#2980B9"/>
<path opacity="0.2" d="M55.7256 308.282L148.9 361.218L284.049 283.642L190.881 230.703L55.7256 308.282Z" fill="white"/>
<path d="M149.597 358.57L58.5817 306.644C60.1204 302.277 60.0049 300.951 58.2637 295.138L148.901 346.708C148.901 346.708 150.02 346.626 149.597 358.57Z" fill="#F5F5F5"/>
<path d="M145.896 341.936C149.021 343.73 151.555 348.092 151.555 351.68V359.293C151.555 362.881 149.022 364.335 145.895 362.542L55.7335 311.102L55.7266 308.282L145.115 359.068C146.991 360.144 148.508 359.271 148.507 357.119L148.454 350.34C148.452 348.188 146.93 345.57 145.054 344.493L55.7335 293.694V290.497L145.896 341.936Z" fill="#2980B9"/>
<path opacity="0.4" d="M145.896 341.936C149.021 343.73 151.555 348.092 151.555 351.68V359.293C151.555 362.881 149.022 364.335 145.895 362.542L55.7335 311.102L55.7266 308.282L145.115 359.068C146.991 360.144 148.508 359.271 148.507 357.119L148.454 350.34C148.452 348.188 146.93 345.57 145.054 344.493L55.7335 293.694V290.497L145.896 341.936Z" fill="white"/>
<path d="M55.7324 290.504L190.882 212.927L281.04 264.362C284.164 266.155 286.699 270.521 286.699 274.107L286.701 281.721C286.698 283.508 286.071 284.769 285.041 285.359L149.891 362.936C150.92 362.344 151.547 361.085 151.551 359.298L151.56 351.676C151.56 348.091 149.025 343.725 145.902 341.933L55.7324 290.504Z" fill="#2980B9"/>
<path opacity="0.85" d="M55.7324 290.504L190.882 212.927L281.04 264.362C284.164 266.155 286.699 270.521 286.699 274.107L286.701 281.721C286.698 283.508 286.071 284.769 285.041 285.359L149.891 362.936C150.92 362.344 151.547 361.085 151.551 359.298L151.56 351.676C151.56 348.091 149.025 343.725 145.902 341.933L55.7324 290.504Z" fill="white"/>
<path d="M149.903 346.133C150.926 347.896 151.56 349.884 151.56 351.676L151.552 359.298C151.548 361.085 150.922 362.344 149.892 362.936L285.041 285.359C286.071 284.769 286.698 283.508 286.701 281.721L286.7 274.107C286.7 272.314 286.065 270.327 285.041 268.563L149.903 346.133Z" fill="#2980B9"/>
<path opacity="0.6" d="M149.903 346.133C150.926 347.896 151.56 349.884 151.56 351.676L151.552 359.298C151.548 361.085 150.922 362.344 149.892 362.936L285.041 285.359C286.071 284.769 286.698 283.508 286.701 281.721L286.7 274.107C286.7 272.314 286.065 270.327 285.041 268.563L149.903 346.133Z" fill="white"/>
<path d="M271.744 276.112C273.579 284.08 273.552 287.193 271.745 293.035L267.059 295.741C268.867 289.898 268.893 286.785 267.059 278.817L271.744 276.112Z" fill="white"/>
<path d="M170.469 334.301C172.303 342.267 172.277 345.28 170.47 351.123L165.783 353.829C167.591 347.985 167.617 344.973 165.782 337.007L170.469 334.301Z" fill="white"/>
<path d="M265.368 168.893V203.974C265.392 209.03 269.804 214.079 278.612 217.933C296.268 225.66 324.894 225.66 342.551 217.933C351.383 214.062 355.787 208.998 355.787 203.935V168.893H355.779C355.882 163.765 351.479 158.63 342.551 154.719C324.894 146.992 296.268 146.992 278.612 154.719C269.676 158.63 265.272 163.765 265.376 168.893H265.368Z" fill="#37474F"/>
<path d="M265.376 168.893C265.272 163.765 269.676 158.63 278.612 154.719C296.268 146.992 324.894 146.992 342.551 154.719C351.478 158.63 355.882 163.765 355.779 168.893H355.787V184.92C355.78 180.944 352.268 178.099 341.825 181.942C324.713 188.24 315.115 198.647 297.659 203.791C283.225 208.043 270.44 206.404 265.367 201.099V168.893H265.376Z" fill="#263238"/>
<path d="M265.368 187.46V191.439C265.392 196.487 269.804 201.543 278.612 205.39C296.268 213.125 324.894 213.125 342.551 205.39C351.447 201.503 355.851 196.383 355.787 191.28V187.419C355.787 192.484 351.383 197.547 342.551 201.418C324.894 209.145 296.268 209.145 278.612 201.418C269.804 197.564 265.391 192.516 265.368 187.46Z" fill="#2980B9"/>
<path d="M381.618 157.706L310.576 124.148L239.534 157.706V163.299L310.576 193.129L381.618 163.299V157.706Z" fill="#37474F"/>
<path opacity="0.2" d="M310.576 193.129V187.536L381.618 157.706V163.299L310.576 193.129Z" fill="#2980B9"/>
<path opacity="0.2" d="M310.576 187.536L380.599 159.365L381.618 163.299V157.706L310.576 187.536Z" fill="#2980B9"/>
<path d="M310.576 124.148L239.534 157.706L310.576 187.536L381.618 157.706L310.576 124.148Z" fill="#455A64"/>
<path d="M272.488 185.183C272.478 184.721 272.263 173.81 273.325 170.713C274.39 167.609 278.438 164.461 286.865 160.185C296.228 155.434 304.834 153.417 305.784 153.202L306.133 154.753C305.203 154.963 296.777 156.938 287.584 161.603C279.668 165.619 275.735 168.588 274.83 171.229C274.023 173.579 274.014 182.075 274.078 185.151L272.488 185.183Z" fill="#2980B9"/>
<path opacity="0.8" d="M272.488 185.183C272.478 184.721 272.263 173.81 273.325 170.713C274.39 167.609 278.438 164.461 286.865 160.185C296.228 155.434 304.834 153.417 305.784 153.202L306.133 154.753C305.203 154.963 296.777 156.938 287.584 161.603C279.668 165.619 275.735 168.588 274.83 171.229C274.023 173.579 274.014 182.075 274.078 185.151L272.488 185.183Z" fill="white"/>
<path d="M281.717 218.536C281.717 210.367 280.363 195.748 276.083 191.503H270.436C266.157 195.748 264.803 210.368 264.803 218.536C264.803 219.786 265.629 221.035 267.279 221.988C268.931 222.942 271.095 223.418 273.26 223.418C275.424 223.418 277.589 222.942 279.24 221.988C280.892 221.036 281.717 219.786 281.717 218.536Z" fill="#2980B9"/>
<path opacity="0.5" d="M281.717 218.536C281.717 210.367 280.363 195.748 276.083 191.503H270.436C266.157 195.748 264.803 210.368 264.803 218.536C264.803 219.786 265.629 221.035 267.279 221.988C268.931 222.942 271.095 223.418 273.26 223.418C275.424 223.418 277.589 222.942 279.24 221.988C280.892 221.036 281.717 219.786 281.717 218.536Z" fill="white"/>
<path opacity="0.6" d="M270.436 191.503C270.115 191.822 269.811 192.206 269.522 192.635C270.598 193.778 272.252 194.067 273.904 194.2C275.423 194.322 277.263 195.664 277.995 202.362C278.727 209.06 280.15 217.615 277.497 220.205C274.844 222.794 268.918 222.774 265.806 220.842C266.188 221.254 266.677 221.642 267.28 221.989C268.931 222.943 271.096 223.419 273.26 223.419C275.425 223.419 277.589 222.943 279.241 221.989C280.892 221.036 281.718 219.786 281.718 218.537C281.718 210.368 280.364 195.749 276.084 191.504H270.436V191.503Z" fill="#2980B9"/>
<path d="M277.497 188.525C277.497 190.864 275.6 192.761 273.26 192.761C270.92 192.761 269.023 190.865 269.023 188.525C269.023 186.184 270.921 184.288 273.26 184.288C275.6 184.287 277.497 186.184 277.497 188.525Z" fill="#2980B9"/>
<path opacity="0.5" d="M277.497 188.525C277.497 190.864 275.6 192.761 273.26 192.761C270.92 192.761 269.023 190.865 269.023 188.525C269.023 186.184 270.921 184.288 273.26 184.288C275.6 184.287 277.497 186.184 277.497 188.525Z" fill="white"/>
<path opacity="0.4" d="M275.724 185.089C276.781 186.205 276.94 189.124 274.694 190.596C272.459 192.06 270.127 190.92 269.238 189.79C269.779 191.507 271.365 192.761 273.261 192.761C275.601 192.761 277.498 190.864 277.498 188.525C277.497 187.106 276.794 185.858 275.724 185.089Z" fill="#2980B9"/>
<path d="M304.868 151.181C304.868 150.337 305.425 149.494 306.54 148.85C308.77 147.563 312.384 147.563 314.613 148.85C315.728 149.494 316.285 150.337 316.285 151.181C316.285 151.496 316.285 152.732 316.285 153.046C316.285 153.889 315.728 154.732 314.613 155.376C312.384 156.663 308.77 156.663 306.54 155.376C305.426 154.732 304.868 153.889 304.868 153.046C304.868 152.731 304.868 151.495 304.868 151.181Z" fill="#263238"/>
<path d="M314.614 153.511C316.843 152.224 316.843 150.137 314.614 148.85C312.385 147.563 308.77 147.563 306.541 148.85C304.312 150.137 304.312 152.224 306.541 153.511C308.77 154.798 312.385 154.798 314.614 153.511Z" fill="#37474F"/>
<path d="M84.4275 321.604C89.4719 321.04 98.2781 320.228 105.589 330.445C113.915 342.08 110.437 358.92 102.106 367.191C91.6407 377.582 73.0853 381.258 60.4035 373.126C46.3814 364.136 41.9196 343.323 48.6432 332.744C55.3668 322.166 68.5589 322.596 72.1215 323.438C77.4711 324.702 80.5002 322.042 84.4275 321.604Z" fill="#2980B9"/>
<path opacity="0.1" d="M66.8459 369.38C80.9913 374.251 98.2856 369.03 107.594 359.014C106.195 362.173 104.325 364.987 102.106 367.19C91.6405 377.581 73.085 381.257 60.4033 373.126C49.7714 366.309 44.6494 352.702 45.7191 341.906C45.7183 344.882 51.279 364.019 66.8459 369.38Z" fill="black"/>
<g opacity="0.1">
<path d="M90.369 325.163C93.5454 324.338 98.7105 326.399 101.907 330.37C105.877 335.304 107.571 342.936 107.578 348.695C107.592 360.309 97.6839 368.091 96.4642 367.311C95.2453 366.531 101.917 357.803 95.6392 347.312C89.2682 336.667 85.1659 326.515 90.369 325.163Z" fill="white"/>
</g>
<g opacity="0.1">
<path d="M93.1711 326.562C96.6424 327.112 101.337 331.712 102.96 335.259C104.583 338.805 104.528 341.413 104.097 341.934C103.321 342.871 95.5477 337.491 92.8815 334.935C89.1042 331.313 87.575 325.674 93.1711 326.562Z" fill="white"/>
</g>
<path opacity="0.2" d="M80.8778 332.148C82.3914 330.452 83.9198 329.467 85.1533 331.42C86.3868 333.372 82.2802 337.473 76.8522 336.84C71.4251 336.207 69.0632 333.143 68.8848 331.422C68.8848 331.422 71.8449 334.72 75.3851 334.554C77.8315 334.441 80.0933 333.028 80.8778 332.148Z" fill="black"/>
<path d="M76.6281 335.519C76.6281 335.519 75.3351 328.011 76.5522 320.99C77.7702 313.97 81.1105 308.626 82.1458 307.925C83.1802 307.225 85.0024 306.526 87.66 306.11C90.3167 305.694 93.7828 306.94 93.0897 308.107C92.3967 309.274 88.703 310.691 84.7999 315.814C80.8984 320.938 77.903 330.118 78.7538 335.155C78.7555 335.157 77.928 335.979 76.6281 335.519Z" fill="#37474F"/>
<path d="M82.3269 307.814C82.4054 307.765 82.4795 307.715 82.5666 307.667C82.5752 307.662 82.5847 307.657 82.5933 307.652C83.6725 307.048 85.3508 306.472 87.6619 306.111C89.6238 305.803 92.0219 306.404 92.8658 307.207C93.1114 307.559 92.6175 308.174 90.303 308.911C87.9791 309.653 85.4724 309.859 83.2174 309.447C82.1209 309.246 81.5667 308.399 82.3269 307.814Z" fill="#455A64"/>
<path opacity="0.1" d="M78.6555 326.579C79.7287 320.248 85.2128 314.192 89.1763 311.252C87.8669 312.334 86.3523 313.779 84.8007 315.816C80.8993 320.94 77.9039 330.119 78.7547 335.157C78.7547 335.157 77.928 335.98 76.6272 335.519C76.6272 335.519 76.3178 333.709 76.1445 331.043C76.6919 333.454 77.6668 332.413 78.6555 326.579Z" fill="black"/>
<path d="M76.1106 324.896C73.0143 326.081 67.4993 325.821 63.7797 322.339C59.3111 318.154 60.6257 311.499 60.6257 311.499C60.6257 311.499 66.1321 309.224 71.3524 312.955C75.1607 315.676 76.6822 321.935 76.1106 324.896Z" fill="#2980B9"/>
<path opacity="0.3" d="M76.1106 324.896C73.0143 326.081 67.4993 325.821 63.7797 322.339C59.3111 318.154 60.6257 311.499 60.6257 311.499C60.6257 311.499 66.1321 309.224 71.3524 312.955C75.1607 315.676 76.6822 321.935 76.1106 324.896Z" fill="black"/>
<path d="M60.625 311.499C60.625 311.499 66.1315 309.224 71.3517 312.955C75.16 315.676 76.6823 321.935 76.11 324.896C71.5638 316.154 60.625 311.499 60.625 311.499Z" fill="#2980B9"/>
<path opacity="0.2" d="M60.625 311.499C60.625 311.499 66.1315 309.224 71.3517 312.955C75.16 315.676 76.6823 321.935 76.11 324.896C71.5638 316.154 60.625 311.499 60.625 311.499Z" fill="black"/>
<path d="M318.165 314.278C318.165 316.826 319.955 319.924 322.163 321.197C323.019 321.693 323.81 321.836 324.459 321.684C324.332 321.822 324.184 321.935 324.027 322.023L324.985 321.477C325.005 321.462 325.019 321.452 325.039 321.442C325.089 321.413 325.133 321.379 325.182 321.344C325.245 321.299 325.305 321.246 325.359 321.192C325.394 321.157 325.427 321.123 325.463 321.083C325.472 321.079 325.477 321.073 325.482 321.064C325.512 321.029 325.545 320.99 325.575 320.946C325.708 320.773 325.816 320.577 325.904 320.351C325.929 320.287 325.953 320.223 325.973 320.159C325.988 320.124 325.997 320.095 326.002 320.061C326.022 320.002 326.037 319.943 326.046 319.885C326.12 319.585 326.155 319.256 326.155 318.892C326.155 316.345 324.365 313.247 322.161 311.973C321.517 311.599 320.912 311.427 320.371 311.427H320.356C320.273 311.427 320.189 311.432 320.111 311.442L319.88 311.481C319.83 311.491 319.786 311.506 319.742 311.521L319.659 311.546C319.604 311.565 319.55 311.585 319.496 311.615L319.461 311.629C319.412 311.654 319.358 311.679 319.309 311.709L318.473 312.185C318.606 312.117 318.753 312.063 318.905 312.033C318.44 312.517 318.165 313.279 318.165 314.278ZM324.747 321.592C324.771 321.582 324.793 321.568 324.816 321.559C324.792 321.569 324.771 321.582 324.747 321.592Z" fill="#2980B9"/>
<path d="M214.833 372.041L220.468 381.837L221.422 381.286L324.026 322.023C324.183 321.935 324.331 321.822 324.459 321.684C324.921 321.197 325.196 320.435 325.196 319.437C325.196 316.89 323.405 313.792 321.198 312.518C320.559 312.145 319.95 311.972 319.413 311.972C319.236 311.972 319.07 311.992 318.907 312.031C318.754 312.06 318.607 312.115 318.474 312.184C318.45 312.194 318.425 312.209 318.405 312.218L318.38 312.233C318.376 312.237 318.376 312.237 318.37 312.237L214.833 372.041Z" fill="#F0F0F0"/>
<path d="M217.659 372.321C215.453 371.047 213.664 372.08 213.664 374.627C213.664 377.175 215.453 380.272 217.659 381.546C219.865 382.819 221.654 381.788 221.654 379.239C221.653 376.692 219.865 373.594 217.659 372.321Z" fill="#2980B9"/>
<path d="M274.372 341.878C274.377 341.868 274.387 341.863 274.397 341.863L274.53 341.785C274.776 341.677 275.101 341.711 275.459 341.918C276.241 342.369 276.881 343.476 276.881 344.381C276.881 344.779 276.758 345.075 276.551 345.237C276.551 345.242 276.546 345.242 276.546 345.242L276.374 345.341L215.659 380.391L211.666 378.085L274.372 341.878Z" fill="#455A64"/>
<path d="M221.296 377.136L215.659 380.391L211.666 378.085L219.298 373.678C220.184 374.65 220.896 375.883 221.296 377.136Z" fill="#37474F"/>
<path d="M207.062 380.922L207.056 380.917L211.681 375.832C211.722 375.783 211.761 375.735 211.805 375.695C212.319 375.181 213.146 375.137 214.084 375.677C215.642 376.576 216.907 378.766 216.907 380.567C216.907 381.607 216.487 382.288 215.832 382.51C215.814 382.514 215.801 382.519 215.788 382.524L215.602 382.563L208.823 384.042L208.82 384.039C208.612 384.086 208.361 384.038 208.091 383.882C207.381 383.473 206.805 382.475 206.805 381.657C206.805 381.324 206.902 381.076 207.062 380.922Z" fill="#2980B9"/>
<path opacity="0.1" d="M207.062 380.922L207.056 380.917L211.681 375.832C211.722 375.783 211.761 375.735 211.805 375.695C212.319 375.181 213.146 375.137 214.084 375.677C215.642 376.576 216.907 378.766 216.907 380.567C216.907 381.607 216.487 382.288 215.832 382.51C215.814 382.514 215.801 382.519 215.788 382.524L215.602 382.563L208.823 384.042L208.82 384.039C208.612 384.086 208.361 384.038 208.091 383.882C207.381 383.473 206.805 382.475 206.805 381.657C206.805 381.324 206.902 381.076 207.062 380.922Z" fill="black"/>
<path d="M206.804 381.656C206.804 382.475 207.38 383.47 208.092 383.881C208.361 384.037 208.614 384.085 208.817 384.037L208.822 384.041L212.247 383.293C212.787 383.178 213.141 382.669 213.141 381.855C213.141 380.545 212.221 378.947 211.088 378.292C210.415 377.903 209.818 377.934 209.441 378.296L209.349 378.398L207.056 380.917L207.061 380.921C206.901 381.076 206.804 381.324 206.804 381.656Z" fill="#2980B9"/>
<path opacity="0.1" d="M208.09 380.913C207.38 380.503 206.804 380.835 206.804 381.655C206.804 382.475 207.38 383.471 208.09 383.881C208.799 384.29 209.375 383.958 209.375 383.138C209.375 382.319 208.8 381.323 208.09 380.913Z" fill="black"/>
<path d="M309.845 321.369C310.101 321.217 310.455 321.242 310.848 321.467C311.631 321.92 312.264 323.016 312.26 323.916C312.26 324.373 312.102 324.693 311.842 324.835L276.552 345.236C276.759 345.074 276.881 344.778 276.881 344.38C276.881 343.475 276.241 342.369 275.46 341.917C275.1 341.71 274.776 341.676 274.53 341.784L309.845 321.369Z" fill="#FAFAFA"/>
<path d="M309.432 322.284C309.432 323.184 310.066 324.28 310.848 324.733C311.237 324.953 311.586 324.978 311.837 324.831C312.097 324.689 312.259 324.374 312.259 323.916C312.264 323.016 311.63 321.92 310.847 321.467C310.454 321.241 310.1 321.217 309.844 321.369C309.589 321.516 309.432 321.835 309.432 322.284Z" fill="#F5F5F5"/>
<path d="M312.594 316.235L312.592 316.232L312.638 316.206C312.658 316.193 312.679 316.181 312.7 316.17L318.594 312.771C318.639 312.742 318.684 312.716 318.732 312.691L318.765 312.672L318.766 312.675C319.407 312.361 320.261 312.434 321.202 312.977C323.188 314.123 324.798 316.911 324.798 319.204C324.798 320.356 324.39 321.164 323.734 321.537L317.768 324.981C317.758 324.987 317.747 324.994 317.736 325L317.701 325.02L317.699 325.016C317.053 325.36 316.178 325.297 315.211 324.74C313.225 323.593 311.615 320.805 311.615 318.512C311.614 317.411 311.988 316.628 312.594 316.235Z" fill="#2980B9"/>
<path opacity="0.05" d="M312.594 316.235L312.592 316.232L312.638 316.206C312.658 316.193 312.679 316.181 312.7 316.17L318.594 312.771C318.639 312.742 318.684 312.716 318.732 312.691L318.765 312.672L318.766 312.675C319.407 312.361 320.261 312.434 321.202 312.977C323.188 314.123 324.798 316.911 324.798 319.204C324.798 320.356 324.39 321.164 323.734 321.537L317.768 324.981C317.758 324.987 317.747 324.994 317.736 325L317.701 325.02L317.699 325.016C317.053 325.36 316.178 325.297 315.211 324.74C313.225 323.593 311.615 320.805 311.615 318.512C311.614 317.411 311.988 316.628 312.594 316.235Z" fill="black"/>
<path opacity="0.1" d="M315.21 316.437C313.224 315.29 311.614 316.22 311.614 318.512C311.614 320.805 313.224 323.594 315.21 324.74C317.195 325.886 318.805 324.957 318.805 322.664C318.804 320.371 317.195 317.583 315.21 316.437Z" fill="black"/>
<path d="M205.172 383.062L207.61 381.598L207.611 381.6C207.732 381.523 207.9 381.527 208.089 381.637C208.452 381.847 208.747 382.357 208.747 382.778C208.747 382.988 208.673 383.136 208.554 383.205L206.124 384.674C205.991 384.748 205.836 384.79 205.673 384.79C205.156 384.79 204.736 384.371 204.736 383.854C204.737 383.519 204.91 383.228 205.172 383.062Z" fill="#455A64"/>
<path d="M205.03 383.173L205.036 383.168C205.074 383.133 205.121 383.095 205.165 383.066C205.17 383.066 205.17 383.061 205.174 383.061C205.287 383.017 205.436 383.041 205.598 383.135C205.962 383.347 206.258 383.853 206.258 384.275C206.258 384.481 206.189 384.624 206.071 384.693C206.055 384.704 206.036 384.713 206.021 384.718C206.006 384.728 205.973 384.74 205.973 384.74C205.879 384.78 205.78 384.791 205.672 384.791C205.155 384.791 204.737 384.368 204.737 383.852C204.737 383.582 204.848 383.34 205.03 383.173Z" fill="#263238"/>
<path d="M361.684 316.833L377.53 313.729C377.991 313.64 378.304 314.185 377.993 314.537L367.243 326.709L361.684 316.833Z" fill="#FFA8A7"/>
<path d="M377.992 314.537C378.303 314.185 377.991 313.64 377.529 313.729L374.436 314.335C375.303 314.871 375.796 315.848 375.715 316.864L375.692 317.14L377.992 314.537Z" fill="#263238"/>
<path d="M289.364 371.306L290.66 370.563L292.227 369.67L367.242 326.712C367.829 324.989 367.544 323.105 366.801 321.456C365.677 318.94 363.494 316.956 361.686 316.84L286.707 359.781L283.717 361.496C285.715 360.494 291.353 370.273 289.364 371.306Z" fill="#455A64"/>
<path d="M294.308 368.491L297.2 366.826C298.054 366.371 297.564 364.274 296.564 362.103C295.244 359.218 292.642 356.425 291.51 357.026L289.376 358.25L288.62 358.701C289.754 358.099 292.357 360.892 293.677 363.778C294.633 365.858 295.118 367.882 294.392 368.432L294.384 368.437C294.366 368.461 294.34 368.477 294.308 368.491Z" fill="#EBEBEB"/>
<path d="M295.026 368.07C297.012 367.016 291.325 357.224 289.339 358.277L286.438 359.935C288.425 358.882 294.11 368.674 292.124 369.726L295.026 368.07Z" fill="#2980B9"/>
<path d="M289.364 371.306L292.227 369.67C294.185 368.652 288.778 359.155 286.707 359.78C286.669 359.787 286.629 359.806 286.589 359.826L283.718 361.495C285.715 360.494 291.353 370.273 289.364 371.306Z" fill="#EBEBEB"/>
<path opacity="0.15" d="M378.064 314.003L377.529 313.729L366.031 320.018L287.786 364.842C287.675 364.665 287.584 364.654 287.51 364.775C289.2 367.409 290.476 370.728 289.363 371.306L290.66 370.563L292.227 369.67L367.241 326.712L367.243 326.709L377.992 314.537C378.137 314.373 378.142 314.167 378.064 314.003Z" fill="black"/>
<path d="M277.217 378.257L289.363 371.306C290.214 370.865 289.742 368.787 288.761 366.628C287.449 363.736 284.859 360.919 283.717 361.495C283.717 361.495 283.71 361.493 283.7 361.499L271.517 368.477C269.097 369.873 271.322 375.129 274.023 377.477C275.028 378.364 276.151 378.757 277.217 378.257Z" fill="#F28F8F"/>
<path opacity="0.1" d="M277.942 374.489C277.245 371.751 275.027 369.067 272.987 368.493C272.239 368.283 271.62 368.388 271.169 368.737C269.341 370.433 271.468 375.256 274.023 377.478C275.007 378.346 276.106 378.736 277.155 378.278C278.064 377.747 278.414 376.346 277.942 374.489Z" fill="black"/>
<path d="M226.399 81.6228L239.451 74.7966C239.451 74.7966 247.741 76.9137 261.579 76.0948C282.051 74.8837 294 66.2395 290.957 54.0991C287.838 41.6587 274.15 36.7772 249.749 37.7297C219.22 38.9219 211.817 59.615 230.045 71.8442L226.399 81.6228Z" fill="#2980B9"/>
<path opacity="0.7" d="M226.399 81.6228L239.451 74.7966C239.451 74.7966 247.741 76.9137 261.579 76.0948C282.051 74.8837 294 66.2395 290.957 54.0991C287.838 41.6587 274.15 36.7772 249.749 37.7297C219.22 38.9219 211.817 59.615 230.045 71.8442L226.399 81.6228Z" fill="white"/>
<path d="M240.398 60.6072C242.195 60.6072 243.652 59.1503 243.652 57.3532C243.652 55.556 242.195 54.0991 240.398 54.0991C238.6 54.0991 237.144 55.556 237.144 57.3532C237.144 59.1503 238.6 60.6072 240.398 60.6072Z" fill="white"/>
<path d="M255.703 60.6072C257.5 60.6072 258.957 59.1503 258.957 57.3532C258.957 55.556 257.5 54.0991 255.703 54.0991C253.906 54.0991 252.449 55.556 252.449 57.3532C252.449 59.1503 253.906 60.6072 255.703 60.6072Z" fill="white"/>
<path d="M271.009 60.6072C272.806 60.6072 274.263 59.1503 274.263 57.3532C274.263 55.556 272.806 54.0991 271.009 54.0991C269.212 54.0991 267.755 55.556 267.755 57.3532C267.755 59.1503 269.212 60.6072 271.009 60.6072Z" fill="white"/>
<path d="M62.3008 278.666C62.3008 280.896 63.9687 282.325 66.0272 283.513L150.376 332.212C152.434 333.4 155.771 333.4 157.829 332.212L293.905 253.65C295.962 252.462 297.631 250.933 297.631 248.703C297.631 246.473 295.963 245.094 293.905 243.905L209.555 195.206C207.498 194.018 204.161 194.018 202.103 195.206L66.0263 273.769C63.9679 274.957 62.2999 276.437 62.3008 278.666Z" fill="#37474F"/>
<path d="M66.0263 278.072L150.376 326.771C152.434 327.959 155.771 327.959 157.829 326.771L293.905 248.209C295.962 247.021 295.962 245.094 293.905 243.905L209.555 195.206C207.498 194.018 204.161 194.018 202.102 195.206L66.0263 273.769C63.9678 274.957 63.9678 276.884 66.0263 278.072Z" fill="#455A64"/>
<path d="M154.106 327.67V333.101C152.755 333.101 151.403 332.809 150.379 332.215L66.0263 283.514C63.9696 282.326 62.3008 280.897 62.3008 278.667C62.3008 276.576 63.8007 275.119 65.7359 273.936C64.1377 275.065 64.1075 276.963 66.0263 278.073L150.379 326.775C151.403 327.368 152.754 327.67 154.106 327.67Z" fill="#263238"/>
<path d="M60.6807 274.345C59.0472 273.593 58.6033 272.295 58.4472 270.009L51.1349 163.03C50.9789 160.744 52.521 157.927 54.5786 156.739L190.654 78.1766C192.711 76.9888 194.22 76.3431 196.121 77.6422C198.109 79.0007 198.062 79.6601 198.218 81.9461L205.529 188.925C205.685 191.211 204.143 194.028 202.086 195.216L66.0096 273.778C63.952 274.966 62.7865 275.315 60.6807 274.345Z" fill="#37474F"/>
<path d="M198.22 81.9417C198.065 79.66 196.267 78.7713 194.21 79.954L58.1318 158.521C57.1034 159.116 56.1992 160.119 55.5829 161.259L52.0323 159.473H52.0254C52.6486 158.333 53.5529 157.329 54.5812 156.735L190.652 78.1748C192.71 76.9861 194.227 76.3293 196.118 77.6395C198.116 79.0239 198.065 79.66 198.22 81.9417Z" fill="#455A64"/>
<path d="M65.7339 273.935C63.8608 275.042 62.6747 275.178 60.6809 274.342C59.1569 273.702 58.6052 272.295 58.4492 270.009L51.1368 163.027C51.0593 161.885 51.4015 160.608 52.0307 159.476L55.5804 161.248L55.5813 161.256C54.9615 162.397 54.6098 163.665 54.6874 164.808L61.9998 271.79C62.1454 273.909 63.9763 274.974 65.7339 273.935Z" fill="#263238"/>
<path d="M60.4966 162.611L191.449 87.0267C192.684 86.3138 193.761 86.8483 193.855 88.2197L200.677 188.019C200.771 189.392 199.845 191.081 198.61 191.794L67.6581 267.378C66.4229 268.091 65.3462 267.556 65.2523 266.185L58.4304 166.387C58.3364 165.014 59.2614 163.324 60.4966 162.611Z" fill="black"/>
<path d="M60.4966 162.611C59.2614 163.324 58.3364 165.014 58.4304 166.386L65.1393 264.522L194.595 189.803C195.831 189.09 196.756 187.4 196.662 186.028L189.953 87.8904L60.4966 162.611Z" fill="#2980B9"/>
<path opacity="0.8" d="M60.4966 162.611C59.2614 163.324 58.3364 165.014 58.4304 166.386L65.1393 264.522L194.595 189.803C195.831 189.09 196.756 187.4 196.662 186.028L189.953 87.8904L60.4966 162.611Z" fill="white"/>
<path d="M77.5356 274.401L202.583 202.206C203.554 201.646 205.127 201.646 206.098 202.206L210.653 204.761C211.623 205.322 211.623 206.23 210.653 206.789L85.5858 278.973C84.6152 279.534 83.042 279.534 82.0714 278.973L77.5356 276.43C76.565 275.87 76.565 274.962 77.5356 274.401Z" fill="#263238"/>
<path d="M89.8155 281.645L214.862 209.449C215.833 208.888 217.27 208.81 218.073 209.274L250.622 228.066C251.424 228.53 251.289 229.359 250.318 229.92L125.417 302.017C124.446 302.578 123.008 302.659 122.203 302.197L89.5164 283.493C88.7113 283.033 88.8449 282.205 89.8155 281.645Z" fill="#263238"/>
<path d="M198.17 239.772L202.085 237.512C202.251 237.415 202.267 237.269 202.119 237.184L198.372 235.021C198.225 234.936 197.97 234.944 197.803 235.041L193.888 237.301C193.722 237.397 193.707 237.544 193.855 237.629L197.6 239.792C197.749 239.877 198.003 239.868 198.17 239.772ZM192.454 231.951L188.539 234.211C188.372 234.308 188.358 234.455 188.505 234.54L192.25 236.703C192.398 236.788 192.653 236.779 192.819 236.684L196.735 234.423C196.901 234.327 196.916 234.18 196.768 234.094L193.022 231.931C192.875 231.846 192.62 231.855 192.454 231.951ZM179.805 239.254L173.179 243.08C173.012 243.175 172.998 243.323 173.145 243.407L176.891 245.57C177.04 245.655 177.294 245.647 177.46 245.55L184.086 241.725C184.252 241.629 184.268 241.482 184.119 241.396L180.374 239.233C180.226 239.149 179.971 239.158 179.805 239.254ZM186.731 235.254L182.816 237.515C182.65 237.611 182.634 237.759 182.782 237.844L186.529 240.007C186.676 240.092 186.931 240.083 187.097 239.988L191.012 237.728C191.178 237.631 191.194 237.484 191.045 237.399L187.299 235.236C187.153 235.149 186.897 235.159 186.731 235.254ZM171.372 244.123L167.457 246.383C167.29 246.479 167.276 246.626 167.423 246.711L171.169 248.874C171.317 248.959 171.572 248.951 171.738 248.855L175.654 246.594C175.82 246.498 175.835 246.351 175.687 246.266L171.942 244.104C171.793 244.018 171.537 244.026 171.372 244.123ZM165.649 247.426L161.734 249.686C161.568 249.782 161.553 249.929 161.7 250.014L165.447 252.177C165.594 252.263 165.849 252.254 166.016 252.158L169.931 249.898C170.097 249.802 170.112 249.655 169.964 249.57L166.219 247.408C166.071 247.322 165.816 247.33 165.649 247.426ZM180.332 256.25L184.247 253.989C184.413 253.893 184.428 253.746 184.28 253.661L180.535 251.498C180.387 251.413 180.132 251.421 179.966 251.517L176.051 253.777C175.885 253.873 175.869 254.02 176.017 254.106L179.764 256.268C179.91 256.355 180.165 256.347 180.332 256.25ZM174.609 259.554L178.524 257.294C178.69 257.198 178.705 257.051 178.558 256.966L174.812 254.804C174.665 254.718 174.41 254.727 174.243 254.823L170.328 257.083C170.162 257.179 170.147 257.326 170.294 257.411L174.041 259.574C174.188 259.659 174.442 259.65 174.609 259.554ZM168.887 262.858L172.802 260.597C172.968 260.502 172.983 260.354 172.836 260.27L169.09 258.107C168.943 258.022 168.688 258.03 168.521 258.127L164.606 260.387C164.44 260.483 164.425 260.63 164.573 260.715L168.318 262.878C168.466 262.963 168.72 262.954 168.887 262.858ZM163.164 266.161L167.079 263.901C167.246 263.806 167.26 263.658 167.113 263.573L163.367 261.41C163.219 261.325 162.965 261.333 162.799 261.429L158.883 263.689C158.717 263.785 158.701 263.932 158.85 264.018L162.595 266.18C162.743 266.266 162.998 266.258 163.164 266.161ZM192.448 243.076L196.363 240.816C196.529 240.72 196.544 240.573 196.397 240.488L192.65 238.325C192.503 238.24 192.248 238.248 192.082 238.345L188.166 240.605C188 240.701 187.984 240.848 188.132 240.933L191.877 243.096C192.027 243.181 192.282 243.172 192.448 243.076ZM186.054 252.947L194.787 247.904C194.954 247.808 194.968 247.661 194.821 247.576L185.724 242.324C185.576 242.238 185.322 242.247 185.155 242.344L180.638 244.952C180.471 245.048 180.456 245.195 180.603 245.28L185.419 248.06C185.567 248.146 185.552 248.293 185.386 248.389L181.772 250.476C181.606 250.571 181.59 250.719 181.738 250.804L185.485 252.967C185.632 253.051 185.887 253.043 186.054 252.947ZM159.927 250.73L156.012 252.991C155.846 253.087 155.831 253.234 155.978 253.319L159.724 255.482C159.871 255.567 160.126 255.559 160.293 255.462L164.208 253.202C164.374 253.106 164.389 252.959 164.242 252.874L160.496 250.711C160.348 250.626 160.094 250.634 159.927 250.73ZM154.205 254.034L150.29 256.294C150.124 256.391 150.109 256.537 150.256 256.623L154.002 258.785C154.149 258.871 154.404 258.862 154.571 258.766L158.486 256.505C158.652 256.41 158.667 256.262 158.52 256.177L154.773 254.014C154.626 253.929 154.372 253.937 154.205 254.034ZM122.54 289.308C122.687 289.393 122.942 289.385 123.109 289.288L127.024 287.028C127.19 286.932 127.205 286.785 127.057 286.699L123.312 284.537C123.165 284.451 122.909 284.46 122.743 284.557L118.828 286.817C118.662 286.912 118.647 287.06 118.793 287.145L122.54 289.308ZM108.427 280.464L104.512 282.724C104.345 282.82 104.33 282.967 104.478 283.052L108.224 285.214C108.372 285.3 108.626 285.291 108.793 285.195L112.708 282.935C112.874 282.839 112.89 282.692 112.741 282.607L108.996 280.445C108.848 280.359 108.593 280.367 108.427 280.464ZM115.682 287.087C115.83 287.173 116.085 287.164 116.251 287.068L120.167 284.807C120.333 284.712 120.348 284.564 120.199 284.479L116.454 282.316C116.307 282.231 116.051 282.239 115.885 282.336L111.97 284.596C111.803 284.693 111.788 284.839 111.936 284.925L115.682 287.087ZM131.471 290.639L135.386 288.379C135.552 288.282 135.567 288.136 135.42 288.05L131.674 285.887C131.527 285.802 131.272 285.811 131.105 285.907L127.19 288.167C127.025 288.263 127.009 288.411 127.157 288.496L130.902 290.658C131.05 290.743 131.305 290.734 131.471 290.639ZM125.18 293.962C125.327 294.047 125.583 294.039 125.748 293.943L129.663 291.682C129.83 291.586 129.844 291.439 129.697 291.353L125.951 289.191C125.802 289.105 125.548 289.114 125.382 289.21L121.467 291.471C121.3 291.566 121.285 291.714 121.433 291.798L125.18 293.962ZM114.149 277.16L110.234 279.42C110.067 279.516 110.053 279.663 110.2 279.748L113.946 281.911C114.094 281.996 114.348 281.988 114.514 281.891L118.43 279.631C118.596 279.535 118.612 279.388 118.463 279.303L114.718 277.14C114.57 277.055 114.315 277.064 114.149 277.16ZM142.76 260.641L138.845 262.901C138.679 262.998 138.664 263.144 138.812 263.23L142.557 265.393C142.705 265.478 142.96 265.469 143.126 265.374L147.041 263.113C147.208 263.017 147.222 262.869 147.075 262.784L143.329 260.621C143.181 260.536 142.927 260.546 142.76 260.641ZM119.871 273.857L115.956 276.117C115.789 276.212 115.775 276.36 115.922 276.445L119.668 278.608C119.816 278.693 120.07 278.685 120.236 278.589L124.152 276.329C124.318 276.232 124.333 276.086 124.185 276L120.44 273.838C120.292 273.751 120.038 273.76 119.871 273.857ZM148.482 257.337L144.567 259.597C144.401 259.693 144.386 259.84 144.534 259.926L148.279 262.089C148.426 262.174 148.681 262.165 148.848 262.069L152.763 259.809C152.929 259.712 152.944 259.565 152.797 259.48L149.051 257.317C148.904 257.233 148.649 257.241 148.482 257.337ZM137.039 263.945L133.123 266.205C132.957 266.301 132.941 266.449 133.09 266.534L136.836 268.696C136.983 268.781 137.239 268.772 137.405 268.677L141.32 266.417C141.486 266.321 141.502 266.174 141.354 266.088L137.607 263.926C137.459 263.84 137.204 263.849 137.039 263.945ZM131.316 267.248L127.401 269.509C127.234 269.605 127.219 269.753 127.367 269.838L131.112 272.001C131.26 272.086 131.515 272.077 131.681 271.981L135.596 269.721C135.763 269.624 135.777 269.478 135.63 269.392L131.885 267.229C131.737 267.144 131.482 267.153 131.316 267.248ZM125.594 270.552L121.679 272.813C121.512 272.909 121.497 273.056 121.645 273.141L125.39 275.304C125.539 275.389 125.793 275.381 125.959 275.284L129.874 273.024C130.041 272.928 130.055 272.781 129.908 272.695L126.163 270.534C126.014 270.448 125.76 270.457 125.594 270.552ZM151.719 272.77L155.634 270.509C155.801 270.413 155.816 270.265 155.668 270.18L151.922 268.017C151.774 267.932 151.519 267.941 151.353 268.037L147.438 270.297C147.271 270.394 147.257 270.54 147.404 270.626L151.149 272.789C151.299 272.874 151.553 272.865 151.719 272.77ZM205.103 224.648L201.188 226.908C201.021 227.003 201.007 227.151 201.154 227.236L204.899 229.399C205.048 229.484 205.302 229.476 205.468 229.379L209.384 227.119C209.55 227.023 209.565 226.876 209.417 226.79L205.672 224.628C205.524 224.543 205.269 224.552 205.103 224.648ZM198.176 228.647L194.261 230.907C194.094 231.003 194.08 231.15 194.227 231.236L197.972 233.399C198.12 233.484 198.375 233.475 198.541 233.38L202.457 231.119C202.623 231.023 202.638 230.876 202.49 230.791L198.744 228.628C198.597 228.542 198.342 228.551 198.176 228.647ZM210.825 221.344L206.91 223.605C206.743 223.7 206.729 223.848 206.876 223.933L210.622 226.095C210.77 226.18 211.025 226.172 211.19 226.075L215.106 223.815C215.272 223.718 215.287 223.572 215.139 223.486L211.394 221.324C211.246 221.239 210.992 221.248 210.825 221.344ZM179.196 250.726L183.112 248.466C183.278 248.37 183.293 248.223 183.145 248.138L179.4 245.975C179.252 245.89 178.997 245.898 178.831 245.995L174.916 248.255C174.749 248.351 174.735 248.498 174.882 248.584L178.628 250.746C178.776 250.832 179.03 250.823 179.196 250.726ZM217.116 218.02C216.968 217.935 216.713 217.944 216.547 218.039L212.632 220.3C212.466 220.396 212.451 220.543 212.599 220.628L216.344 222.791C216.492 222.876 216.747 222.868 216.912 222.772L220.828 220.512C220.994 220.416 221.009 220.269 220.861 220.183L217.116 218.02ZM157.442 269.466L161.357 267.205C161.524 267.109 161.538 266.962 161.391 266.877L157.645 264.714C157.498 264.629 157.243 264.637 157.077 264.733L153.161 266.994C152.995 267.09 152.98 267.237 153.128 267.323L156.873 269.485C157.021 269.571 157.276 269.561 157.442 269.466ZM227.615 228.951L231.53 226.69C231.696 226.595 231.711 226.447 231.564 226.362L227.818 224.2C227.67 224.115 227.416 224.123 227.249 224.22L223.334 226.48C223.168 226.576 223.153 226.723 223.301 226.809L227.046 228.971C227.194 229.056 227.449 229.047 227.615 228.951ZM216.542 229.165L220.457 226.904C220.623 226.809 220.638 226.662 220.49 226.577L216.745 224.414C216.598 224.329 216.343 224.337 216.177 224.433L212.262 226.693C212.095 226.79 212.08 226.936 212.228 227.021L215.974 229.184C216.121 229.27 216.375 229.262 216.542 229.165ZM222.467 221.11C222.32 221.025 222.064 221.033 221.898 221.129L217.983 223.389C217.817 223.485 217.802 223.632 217.949 223.717L221.695 225.88C221.842 225.966 222.097 225.957 222.263 225.861L226.178 223.601C226.344 223.505 226.36 223.358 226.212 223.273L222.467 221.11ZM223.672 220.415L232.769 225.667C232.917 225.753 233.171 225.744 233.338 225.647L237.253 223.387C237.419 223.291 237.434 223.144 237.287 223.059L228.19 217.807C228.042 217.721 227.787 217.73 227.621 217.827L223.706 220.087C223.539 220.182 223.524 220.33 223.672 220.415ZM210.454 227.737L206.539 229.997C206.373 230.093 206.357 230.24 206.505 230.326L210.251 232.487C210.399 232.573 210.653 232.564 210.82 232.468L214.735 230.207C214.901 230.111 214.916 229.964 214.769 229.879L211.023 227.716C210.875 227.633 210.621 227.641 210.454 227.737ZM167.387 252.602L163.472 254.863C163.305 254.959 163.29 255.106 163.438 255.192L167.184 257.354C167.332 257.44 167.586 257.431 167.752 257.335L171.668 255.075C171.834 254.979 171.849 254.832 171.701 254.747L167.956 252.584C167.808 252.497 167.552 252.507 167.387 252.602ZM221.324 232.275C221.471 232.36 221.727 232.351 221.893 232.256L225.808 229.995C225.975 229.899 225.989 229.752 225.842 229.667L222.096 227.504C221.948 227.419 221.693 227.427 221.527 227.523L217.612 229.784C217.446 229.88 217.43 230.027 217.579 230.113L221.324 232.275ZM173.109 249.298L169.194 251.558C169.027 251.655 169.013 251.801 169.16 251.887L172.905 254.05C173.053 254.135 173.308 254.126 173.474 254.031L177.39 251.769C177.556 251.674 177.571 251.526 177.423 251.441L173.678 249.278C173.53 249.194 173.275 249.202 173.109 249.298ZM128.262 286.004C128.409 286.089 128.664 286.081 128.831 285.984L132.746 283.724C132.911 283.628 132.927 283.481 132.779 283.395L129.034 281.233C128.887 281.147 128.631 281.156 128.466 281.252L124.551 283.512C124.384 283.607 124.37 283.755 124.517 283.84L128.262 286.004ZM121.609 279.032L117.694 281.293C117.527 281.389 117.513 281.536 117.66 281.621L121.405 283.784C121.554 283.87 121.808 283.861 121.974 283.765L125.889 281.505C126.056 281.409 126.07 281.262 125.923 281.177L122.178 279.014C122.029 278.928 121.775 278.936 121.609 279.032ZM134.553 282.68L138.468 280.42C138.634 280.324 138.65 280.177 138.501 280.091L134.755 277.929C134.608 277.844 134.353 277.853 134.186 277.948L130.271 280.209C130.105 280.304 130.09 280.452 130.237 280.537L133.984 282.699C134.132 282.785 134.386 282.777 134.553 282.68ZM140.275 279.377L144.191 277.117C144.357 277.02 144.372 276.874 144.224 276.788L140.479 274.625C140.331 274.54 140.076 274.549 139.91 274.645L135.995 276.905C135.828 277.002 135.814 277.149 135.961 277.234L139.707 279.397C139.854 279.481 140.109 279.472 140.275 279.377ZM145.997 276.073L149.913 273.813C150.079 273.716 150.094 273.569 149.946 273.484L146.201 271.321C146.053 271.236 145.798 271.245 145.632 271.341L141.717 273.601C141.55 273.697 141.535 273.844 141.683 273.93L145.428 276.093C145.577 276.178 145.831 276.169 145.997 276.073ZM127.331 275.729L123.415 277.989C123.249 278.085 123.234 278.232 123.382 278.317L127.128 280.48C127.276 280.565 127.531 280.557 127.697 280.46L131.612 278.2C131.779 278.104 131.793 277.957 131.646 277.872L127.9 275.709C127.751 275.624 127.497 275.632 127.331 275.729ZM133.053 272.425L129.137 274.685C128.971 274.781 128.956 274.928 129.104 275.013L132.85 277.176C132.998 277.261 133.253 277.253 133.419 277.156L137.334 274.895C137.501 274.8 137.515 274.652 137.368 274.567L133.622 272.404C133.474 272.32 133.219 272.329 133.053 272.425ZM155.942 259.209L152.027 261.47C151.861 261.566 151.846 261.713 151.993 261.798L155.739 263.961C155.886 264.046 156.141 264.038 156.308 263.941L160.223 261.681C160.389 261.585 160.404 261.438 160.257 261.352L156.511 259.19C156.363 259.105 156.109 259.114 155.942 259.209ZM150.219 262.513L146.304 264.774C146.138 264.869 146.122 265.017 146.271 265.102L150.016 267.265C150.164 267.35 150.418 267.342 150.585 267.245L154.5 264.985C154.666 264.888 154.682 264.742 154.534 264.656L150.788 262.494C150.64 262.408 150.386 262.417 150.219 262.513ZM161.664 255.906L157.749 258.166C157.583 258.263 157.568 258.409 157.715 258.495L161.461 260.658C161.609 260.743 161.863 260.734 162.03 260.638L165.945 258.377C166.111 258.281 166.126 258.135 165.978 258.049L162.233 255.886C162.085 255.801 161.831 255.81 161.664 255.906ZM138.775 269.121L134.86 271.382C134.694 271.477 134.678 271.625 134.827 271.71L138.573 273.873C138.72 273.958 138.975 273.95 139.142 273.854L143.057 271.594C143.223 271.497 143.238 271.351 143.091 271.265L139.344 269.103C139.196 269.016 138.941 269.025 138.775 269.121ZM144.497 265.818L140.582 268.078C140.416 268.174 140.4 268.321 140.549 268.406L144.294 270.569C144.441 270.654 144.697 270.646 144.863 270.55L148.778 268.289C148.944 268.193 148.96 268.046 148.812 267.96L145.065 265.798C144.918 265.712 144.664 265.721 144.497 265.818ZM137.193 287.335L141.108 285.075C141.274 284.979 141.289 284.832 141.142 284.746L137.395 282.583C137.248 282.498 136.993 282.507 136.826 282.602L132.911 284.863C132.745 284.959 132.729 285.106 132.878 285.191L136.623 287.354C136.772 287.439 137.027 287.43 137.193 287.335ZM107.019 285.911L103.273 283.748C103.125 283.663 102.871 283.671 102.704 283.768L98.789 286.028C98.6226 286.124 98.608 286.271 98.7554 286.356L102.501 288.519C102.649 288.605 102.903 288.596 103.07 288.499L106.985 286.239C107.151 286.143 107.167 285.996 107.019 285.911ZM114.478 287.783L110.733 285.621C110.585 285.536 110.331 285.544 110.164 285.64L104.14 289.117C103.974 289.213 103.959 289.36 104.107 289.446L107.852 291.609C108 291.694 108.254 291.685 108.421 291.59L114.445 288.112C114.611 288.015 114.626 287.868 114.478 287.783ZM101.428 281.64L97.6822 279.477C97.5348 279.391 97.2796 279.4 97.1133 279.496L92.2947 282.278C92.1283 282.374 92.1128 282.521 92.2611 282.607L96.0065 284.769C96.1539 284.855 96.409 284.846 96.5754 284.75L101.394 281.967C101.561 281.872 101.576 281.725 101.428 281.64ZM105.123 279.507C105.27 279.592 105.526 279.584 105.691 279.488L109.606 277.227C109.773 277.131 109.788 276.984 109.64 276.899L105.894 274.736C105.746 274.65 105.491 274.659 105.325 274.755L101.41 277.015C101.244 277.111 101.228 277.258 101.377 277.343L105.123 279.507ZM121.335 290.003L117.589 287.84C117.441 287.755 117.187 287.763 117.02 287.86L109.491 292.207C109.324 292.303 109.31 292.45 109.457 292.535L113.203 294.698C113.35 294.783 113.605 294.775 113.771 294.679L121.301 290.332C121.467 290.235 121.483 290.088 121.335 290.003ZM123.976 294.657L120.23 292.495C120.082 292.409 119.827 292.418 119.661 292.514L114.843 295.295C114.677 295.391 114.661 295.538 114.809 295.624L118.555 297.787C118.702 297.872 118.957 297.863 119.124 297.767L123.942 294.985C124.108 294.889 124.123 294.742 123.976 294.657ZM147.668 254.943C147.815 255.029 148.07 255.02 148.236 254.924L152.151 252.663C152.317 252.568 152.333 252.42 152.185 252.335L148.439 250.172C148.291 250.087 148.037 250.096 147.87 250.192L143.956 252.452C143.79 252.549 143.774 252.695 143.922 252.781L147.668 254.943ZM136.223 261.551C136.371 261.636 136.626 261.627 136.792 261.531L140.707 259.27C140.874 259.174 140.888 259.027 140.74 258.941L136.995 256.779C136.847 256.693 136.592 256.702 136.426 256.798L132.51 259.058C132.344 259.154 132.329 259.301 132.477 259.386L136.223 261.551ZM110.844 276.203C110.992 276.288 111.247 276.28 111.413 276.184L115.328 273.924C115.495 273.828 115.51 273.681 115.362 273.595L111.616 271.433C111.469 271.347 111.214 271.356 111.048 271.452L107.132 273.713C106.966 273.808 106.951 273.956 107.099 274.041L110.844 276.203ZM141.946 258.247C142.093 258.332 142.348 258.323 142.515 258.228L146.43 255.967C146.596 255.872 146.611 255.724 146.464 255.639L142.718 253.476C142.57 253.391 142.316 253.4 142.149 253.496L138.234 255.756C138.068 255.852 138.053 255.999 138.201 256.085L141.946 258.247ZM130.501 264.855C130.649 264.939 130.904 264.931 131.07 264.835L134.985 262.575C135.152 262.479 135.167 262.332 135.019 262.246L131.273 260.084C131.125 259.998 130.871 260.007 130.705 260.103L126.789 262.363C126.623 262.46 126.608 262.607 126.756 262.692L130.501 264.855ZM126.786 294.888C126.638 294.803 126.383 294.812 126.217 294.907L120.193 298.385C120.027 298.48 120.012 298.628 120.16 298.713L123.905 300.875C124.053 300.96 124.308 300.952 124.474 300.855L130.498 297.378C130.664 297.282 130.679 297.135 130.531 297.05L126.786 294.888ZM122.289 269.596C122.437 269.681 122.691 269.672 122.858 269.576L126.773 267.316C126.939 267.219 126.954 267.073 126.807 266.987L123.061 264.825C122.913 264.739 122.659 264.748 122.492 264.844L118.577 267.104C118.411 267.2 118.396 267.348 118.543 267.433L122.289 269.596ZM116.567 272.899C116.715 272.984 116.969 272.976 117.136 272.88L121.051 270.619C121.217 270.523 121.233 270.376 121.085 270.29L117.339 268.128C117.191 268.042 116.937 268.051 116.77 268.147L112.855 270.407C112.689 270.503 112.674 270.65 112.821 270.735L116.567 272.899ZM232.797 233.682C232.649 233.597 232.396 233.605 232.228 233.701L222.591 239.265C222.425 239.361 222.409 239.508 222.558 239.594L226.304 241.756C226.451 241.841 226.706 241.832 226.873 241.736L236.51 236.172C236.676 236.076 236.691 235.929 236.543 235.843L232.797 233.682ZM220.148 240.985C220.001 240.9 219.747 240.908 219.579 241.005L215.664 243.265C215.498 243.362 215.483 243.508 215.631 243.593L219.376 245.756C219.524 245.841 219.778 245.833 219.945 245.736L223.86 243.476C224.026 243.381 224.041 243.233 223.894 243.148L220.148 240.985ZM142.916 284.031L146.831 281.771C146.997 281.674 147.012 281.527 146.864 281.442L143.119 279.279C142.972 279.194 142.717 279.203 142.55 279.299L138.635 281.559C138.469 281.655 138.454 281.802 138.601 281.888L142.347 284.051C142.495 284.136 142.749 284.127 142.916 284.031ZM208.704 247.592C208.557 247.507 208.302 247.516 208.135 247.612L204.22 249.872C204.054 249.969 204.039 250.115 204.187 250.201L207.932 252.363C208.08 252.449 208.335 252.44 208.501 252.344L212.416 250.083C212.582 249.988 212.597 249.84 212.45 249.755L208.704 247.592ZM238.52 230.378C238.372 230.293 238.118 230.301 237.951 230.397L234.036 232.658C233.87 232.754 233.855 232.901 234.002 232.987L237.748 235.149C237.895 235.235 238.15 235.226 238.317 235.13L242.232 232.87C242.398 232.774 242.413 232.627 242.265 232.542L238.52 230.378ZM247.988 229.238L238.892 223.986C238.743 223.9 238.489 223.909 238.323 224.004L234.407 226.266C234.241 226.361 234.226 226.509 234.374 226.594L243.471 231.846C243.619 231.931 243.873 231.923 244.039 231.827L247.955 229.566C248.121 229.47 248.136 229.322 247.988 229.238ZM187.321 259.939C187.173 259.853 186.918 259.862 186.752 259.958L181.933 262.739C181.767 262.835 181.752 262.982 181.9 263.068L185.645 265.23C185.792 265.316 186.048 265.307 186.214 265.211L191.032 262.429C191.199 262.333 191.214 262.186 191.066 262.101L187.321 259.939ZM201.777 251.592C201.629 251.507 201.375 251.515 201.208 251.612L195.185 255.089C195.018 255.185 195.004 255.332 195.151 255.418L198.897 257.58C199.044 257.666 199.299 257.657 199.465 257.561L205.489 254.084C205.655 253.988 205.67 253.841 205.523 253.756L201.777 251.592ZM174.069 267.589C173.922 267.504 173.667 267.512 173.5 267.609L141.275 286.214C141.109 286.31 141.093 286.457 141.242 286.543L144.987 288.705C145.134 288.791 145.39 288.782 145.556 288.686L177.781 270.081C177.947 269.984 177.963 269.838 177.815 269.753L174.069 267.589ZM140.037 287.237C139.89 287.152 139.635 287.161 139.469 287.256L134.65 290.039C134.484 290.135 134.469 290.282 134.616 290.367L138.362 292.53C138.51 292.615 138.764 292.607 138.931 292.51L143.749 289.728C143.916 289.632 143.93 289.485 143.783 289.399L140.037 287.237ZM180.695 263.763C180.548 263.678 180.293 263.687 180.126 263.782L175.308 266.564C175.142 266.661 175.126 266.807 175.274 266.892L179.02 269.054C179.167 269.141 179.422 269.131 179.589 269.035L184.407 266.253C184.574 266.157 184.588 266.011 184.441 265.925L180.695 263.763ZM133.411 291.063C133.264 290.978 133.009 290.986 132.842 291.082L128.024 293.864C127.857 293.961 127.843 294.107 127.99 294.193L131.736 296.356C131.884 296.441 132.138 296.432 132.304 296.337L137.123 293.554C137.289 293.458 137.305 293.311 137.157 293.226L133.411 291.063ZM193.947 256.113C193.799 256.028 193.544 256.036 193.378 256.132L188.559 258.915C188.393 259.01 188.378 259.158 188.526 259.243L192.272 261.406C192.419 261.491 192.675 261.483 192.84 261.387L197.659 258.604C197.825 258.509 197.84 258.361 197.692 258.276L193.947 256.113ZM214.426 244.289C214.279 244.204 214.024 244.212 213.857 244.309L209.942 246.569C209.776 246.665 209.761 246.812 209.909 246.897L213.654 249.06C213.801 249.146 214.057 249.137 214.223 249.04L218.138 246.78C218.304 246.684 218.319 246.537 218.172 246.452L214.426 244.289ZM227.243 235.344L231.159 233.084C231.325 232.988 231.34 232.841 231.193 232.756L227.447 230.594C227.299 230.508 227.044 230.517 226.878 230.613L222.963 232.873C222.796 232.968 222.781 233.116 222.929 233.201L226.675 235.363C226.823 235.448 227.078 235.44 227.243 235.344ZM203.893 236.468L207.808 234.208C207.974 234.112 207.989 233.965 207.841 233.88L204.095 231.717C203.948 231.631 203.693 231.64 203.526 231.736L199.611 233.996C199.445 234.092 199.43 234.239 199.577 234.324L203.323 236.487C203.472 236.573 203.726 236.565 203.893 236.468ZM188.694 257.601L200.139 250.994C200.305 250.898 200.32 250.751 200.172 250.665L196.427 248.503C196.279 248.417 196.024 248.426 195.858 248.522L184.413 255.13C184.247 255.225 184.231 255.373 184.38 255.458L188.125 257.621C188.273 257.705 188.528 257.697 188.694 257.601ZM220.953 238.667C221.1 238.752 221.355 238.744 221.521 238.648L225.437 236.388C225.603 236.291 225.619 236.145 225.47 236.06L221.725 233.897C221.577 233.811 221.322 233.82 221.157 233.917L217.242 236.178C217.075 236.273 217.061 236.421 217.208 236.506L220.953 238.667ZM216.17 235.559L220.085 233.298C220.252 233.202 220.266 233.055 220.119 232.97L216.374 230.807C216.226 230.722 215.971 230.731 215.805 230.826L211.889 233.087C211.723 233.183 211.708 233.33 211.856 233.415L215.602 235.578C215.749 235.663 216.005 235.654 216.17 235.559ZM182.971 260.905L186.886 258.644C187.053 258.548 187.067 258.401 186.92 258.316L183.174 256.153C183.027 256.067 182.772 256.076 182.606 256.172L178.69 258.433C178.524 258.528 178.509 258.676 178.657 258.761L182.402 260.924C182.55 261.009 182.805 261.001 182.971 260.905ZM208.304 245.971C208.452 246.056 208.706 246.048 208.872 245.951L212.788 243.69C212.954 243.594 212.969 243.447 212.821 243.362L209.076 241.199C208.928 241.113 208.673 241.122 208.507 241.218L204.592 243.478C204.425 243.574 204.41 243.721 204.558 243.806L208.304 245.971ZM154.36 277.423L158.276 275.162C158.442 275.067 158.457 274.92 158.309 274.834L154.564 272.671C154.416 272.586 154.161 272.595 153.995 272.69L150.08 274.951C149.913 275.047 149.899 275.194 150.046 275.28L153.792 277.442C153.939 277.529 154.194 277.519 154.36 277.423ZM160.082 274.119L163.998 271.859C164.164 271.763 164.179 271.616 164.031 271.531L160.286 269.368C160.138 269.283 159.884 269.291 159.717 269.388L155.802 271.648C155.635 271.744 155.621 271.891 155.768 271.977L159.513 274.139C159.662 274.225 159.916 274.216 160.082 274.119ZM148.638 280.727L152.553 278.467C152.719 278.371 152.734 278.223 152.586 278.138L148.841 275.976C148.694 275.891 148.438 275.899 148.272 275.995L144.357 278.255C144.191 278.351 144.176 278.498 144.323 278.584L148.069 280.746C148.217 280.832 148.471 280.823 148.638 280.727ZM171.527 267.512L175.442 265.252C175.609 265.156 175.624 265.009 175.476 264.924L171.731 262.761C171.583 262.676 171.328 262.684 171.162 262.78L167.246 265.04C167.08 265.136 167.065 265.283 167.213 265.368L170.958 267.531C171.106 267.617 171.361 267.608 171.527 267.512ZM165.804 270.815L169.72 268.555C169.886 268.46 169.901 268.312 169.753 268.227L166.008 266.064C165.86 265.979 165.605 265.987 165.439 266.084L161.524 268.344C161.357 268.441 161.343 268.587 161.49 268.672L165.235 270.835C165.384 270.921 165.639 270.912 165.804 270.815ZM177.249 264.208L181.164 261.948C181.331 261.852 181.345 261.705 181.198 261.62L177.452 259.457C177.304 259.371 177.049 259.38 176.883 259.477L172.968 261.737C172.801 261.833 172.787 261.98 172.934 262.065L176.679 264.228C176.828 264.313 177.083 264.305 177.249 264.208ZM208.476 218.249C208.624 218.334 208.878 218.326 209.045 218.23L212.96 215.969C213.126 215.873 213.141 215.726 212.994 215.64L211.997 215.065C211.849 214.979 211.595 214.988 211.428 215.085L207.513 217.346C207.348 217.441 207.332 217.589 207.479 217.674L208.476 218.249ZM180.034 236.256C180.182 236.341 180.436 236.333 180.603 236.237L184.518 233.977C184.685 233.881 184.699 233.734 184.552 233.649L180.807 231.487C180.659 231.4 180.404 231.41 180.238 231.506L176.322 233.767C176.156 233.862 176.141 234.01 176.288 234.095L180.034 236.256ZM191.479 229.649C191.626 229.734 191.882 229.726 192.047 229.629L195.962 227.369C196.129 227.272 196.143 227.126 195.996 227.04L192.25 224.878C192.102 224.792 191.847 224.801 191.681 224.898L187.766 227.159C187.6 227.254 187.584 227.402 187.732 227.487L191.479 229.649ZM173.047 240.29C173.195 240.376 173.449 240.367 173.616 240.27L177.531 238.01C177.697 237.915 177.712 237.767 177.565 237.682L173.819 235.519C173.671 235.435 173.417 235.442 173.25 235.539L169.335 237.799C169.169 237.895 169.154 238.042 169.301 238.127L173.047 240.29ZM185.756 232.953C185.904 233.038 186.159 233.03 186.325 232.934L190.24 230.673C190.406 230.577 190.421 230.43 190.274 230.344L186.529 228.182C186.381 228.096 186.126 228.105 185.96 228.201L182.045 230.461C181.879 230.557 181.863 230.704 182.012 230.789L185.756 232.953ZM161.602 246.898C161.75 246.984 162.005 246.975 162.171 246.879L166.086 244.618C166.253 244.523 166.267 244.375 166.12 244.29L162.374 242.128C162.226 242.043 161.971 242.051 161.805 242.147L157.889 244.407C157.723 244.504 157.708 244.65 157.857 244.736L161.602 246.898ZM167.324 243.594C167.472 243.68 167.727 243.671 167.893 243.574L171.808 241.314C171.975 241.219 171.989 241.071 171.841 240.986L168.096 238.823C167.948 238.738 167.693 238.746 167.527 238.842L163.611 241.102C163.445 241.198 163.43 241.345 163.578 241.431L167.324 243.594ZM197.031 224.856C197.179 224.941 197.434 224.933 197.6 224.836L201.515 222.575C201.682 222.48 201.696 222.333 201.549 222.247L200.552 221.671C200.404 221.586 200.149 221.594 199.983 221.69L196.068 223.951C195.902 224.047 195.886 224.194 196.035 224.279L197.031 224.856ZM214.198 214.945C214.346 215.03 214.6 215.022 214.767 214.925L218.682 212.665C218.848 212.568 218.863 212.422 218.716 212.336L217.718 211.761C217.57 211.676 217.316 211.684 217.149 211.78L213.234 214.041C213.068 214.136 213.052 214.284 213.201 214.369L214.198 214.945ZM222.066 219.488C222.214 219.573 222.469 219.564 222.635 219.469L226.55 217.208C226.717 217.113 226.731 216.965 226.584 216.88L222.838 214.717C222.69 214.632 222.435 214.641 222.269 214.736L218.354 216.997C218.187 217.093 218.172 217.24 218.32 217.326L222.066 219.488ZM232.966 232.041L236.881 229.78C237.048 229.684 237.063 229.537 236.915 229.451L233.17 227.289C233.022 227.203 232.767 227.212 232.601 227.308L228.685 229.568C228.519 229.664 228.504 229.811 228.652 229.896L232.397 232.059C232.545 232.145 232.8 232.137 232.966 232.041ZM202.753 221.552C202.9 221.637 203.156 221.629 203.322 221.533L207.237 219.273C207.404 219.177 207.418 219.03 207.271 218.945L206.274 218.37C206.126 218.284 205.871 218.293 205.705 218.389L201.789 220.649C201.623 220.745 201.608 220.892 201.756 220.977L202.753 221.552ZM155.88 250.202C156.028 250.287 156.283 250.278 156.449 250.183L160.364 247.922C160.531 247.826 160.546 247.679 160.398 247.594L156.652 245.431C156.504 245.346 156.249 245.354 156.083 245.45L152.167 247.711C152.002 247.807 151.986 247.953 152.134 248.039L155.88 250.202Z" fill="#455A64"/>
<path d="M172.27 282.765L173.12 283.256L195.732 296.309L235.945 273.091L236.782 272.614L213.319 259.071L172.27 282.765Z" fill="#263238"/>
<path d="M235.428 273.389L213.319 260.634L173.637 283.554L195.732 296.309L235.428 273.389Z" fill="#37474F"/>
<path d="M120.465 48.9651C113.396 44.3344 104.284 45.1628 99.3589 48.8901C92.4275 54.1353 90.032 59.8987 88.7899 71.3383C87.0461 87.4068 85.2523 92.0099 83.3464 95.6777C81.2759 99.661 78.139 101.519 75.3789 102.454C77.1486 103.579 80.6888 104.716 84.5118 102.832C82.8895 110.582 80.6311 117.098 82.6387 125.29C83.9911 130.809 86.8763 137.061 91.1242 141.017C94.7429 144.387 99.9235 145.416 104.277 147.321C101.34 141.016 99.7614 135.066 101.791 127.979C104.031 120.163 109.271 113.507 111.597 105.629C114.814 94.7304 118.504 83.4433 119.413 72.0736C120.183 62.4554 120.539 55.5438 120.465 48.9651Z" fill="#263238"/>
<path d="M116.936 50.402C115.811 49.3443 110.817 50.0262 107.805 53.6207C104.793 57.2153 102.992 62.445 106.653 65.2456C110.089 67.8739 123.425 53.8862 116.936 50.402Z" fill="#2980B9"/>
<path d="M157.878 66.1775C160.363 65.2595 161.416 62.0649 160.675 59.522C159.934 56.9782 157.856 55.043 155.64 53.5914C150.637 50.3141 144.457 48.9073 138.523 49.6099C133.251 47.8988 127.256 47.5135 121.325 48.7565C115.124 50.0555 108.121 55.93 107.547 64.8466C98.6878 66.9361 94.8174 77.805 100.288 89.4118C104.257 97.8336 113.245 103.652 114.328 107.838L147.892 81.753C149.2 83.7942 153.252 83.8881 154.913 83.0779C156.574 82.2676 157.601 79.2713 156.497 77.7904C159.505 78.0878 162.523 75.6638 162.88 72.6615C163.237 69.6583 160.872 66.5938 157.878 66.1775Z" fill="#263238"/>
<path d="M121.325 48.7565C117.652 49.6883 114.384 51.8648 111.987 54.7138C110.787 56.1386 109.814 57.7506 109.132 59.4737C108.442 61.196 108.066 63.0277 107.939 64.8724L107.919 65.1621L107.638 65.2293C105.565 65.7241 103.636 66.7818 102.148 68.2971C100.649 69.8039 99.5859 71.715 98.9601 73.7527C97.7343 77.8636 98.1239 82.3624 99.535 86.4354C100.878 90.573 103.382 94.2115 106.263 97.5008C107.697 99.155 109.214 100.742 110.678 102.388C111.403 103.216 112.14 104.037 112.791 104.93C113.434 105.818 114.066 106.76 114.33 107.838C114.007 106.776 113.316 105.898 112.648 105.042C111.966 104.187 111.197 103.402 110.44 102.61C108.902 101.045 107.333 99.5033 105.849 97.8698C104.362 96.2415 102.939 94.5382 101.706 92.6857C100.444 90.8471 99.5161 88.7938 98.7627 86.7034C97.9843 84.6131 97.5507 82.3943 97.3886 80.1626C97.2456 77.9317 97.4067 75.6448 98.1015 73.4864C98.7816 71.334 99.9324 69.3014 101.555 67.6998C103.165 66.0878 105.25 64.9707 107.459 64.4656L107.159 64.8216C107.443 60.9607 109.052 57.2377 111.61 54.3845C112.878 52.9467 114.39 51.7381 116.03 50.7735C117.671 49.8116 119.463 49.0987 121.325 48.7565Z" fill="black"/>
<path d="M244.33 121.374C246.177 119.81 246.512 119.408 248.999 117.413C250.842 115.935 252.314 114.743 252.79 113.879C253.725 112.178 252.854 110.493 252.075 110.767C250.517 111.318 248.671 112.64 245.073 115.112C241.122 117.827 238.328 120.504 238.115 120.076C238.115 120.076 238.977 118.716 242.337 115.079C247.175 109.843 248.124 108.893 249.019 107.219C250.892 103.714 248.259 103.139 247.098 103.862C245.783 104.68 244.35 106.269 240.888 109.706C237.125 113.443 233.849 117.242 233.555 117.016C233.26 116.79 238.454 111.099 241.572 106.926C244.467 103.05 242.581 101.413 241.759 101.286C240.883 101.149 239.87 102.279 238.472 103.78C235.951 106.49 228.606 115.461 227.07 117.267C225.534 119.073 224.369 119.613 224.172 116.826C223.986 114.212 224.11 111.432 222.972 109.633C221.068 106.624 218.966 107.36 218.96 109.374C218.951 112.215 218.274 115.41 217.772 119.951C217.511 122.319 217.552 125.148 217.502 126.796C217.208 132.561 212.37 135.54 208.345 138.316C204.313 141.096 193.358 147.342 193.358 147.342C193.358 147.342 172.909 126.288 166.943 121.126C159.854 114.993 157.833 114.558 147.825 114.643L161.981 151.04C161.981 151.04 181.216 168.841 187.751 172.643C194.286 176.445 196.937 174.353 204.878 167.322C210.977 161.922 221.007 149.532 223.433 146.779C225.859 144.025 226.902 142.255 229.711 141.225C233.53 139.824 235.497 137.906 238.037 134.994C239.252 133.601 241.262 130.813 243.121 128.931C246.147 125.87 249.965 123.161 251.036 122.263C252.71 120.862 252.973 117.978 250.622 118.887C246.179 120.604 241.719 124.374 241.575 124.123C241.434 123.869 243.062 122.448 244.33 121.374Z" fill="#FFBDA7"/>
<path d="M225.72 121.554C227.765 124.556 228.222 131.667 226.236 135.904C230.347 131.877 229.91 124.641 225.72 121.554Z" fill="#F0997A"/>
<path d="M193.358 147.341C189.971 149.561 185.925 155.957 187.078 162.547C185.609 157.69 184.329 151.616 191.764 145.568L193.358 147.341Z" fill="#F0997A"/>
<path d="M95.6433 125.287L103.523 122.128C103.523 122.128 115.293 119.076 125.105 116.973C135.402 115.674 144.332 114.702 144.332 114.702L147.826 114.642C147.826 114.642 155.579 121.461 161.263 127.767C166.947 134.072 171.937 139.334 172.251 147.286C172.675 158.038 165.771 161.958 165.771 161.958L166.199 175.654L175.167 201.044L88.4551 251.093C91.0928 220.189 97.9578 215.093 101.801 193.671C101.062 182.463 95.4864 167.088 94.5356 159.285C91.2419 132.271 95.6433 125.287 95.6433 125.287Z" fill="#2980B9"/>
<path d="M114.012 111.82C114.337 108.038 114.856 100.507 114.856 100.507C113.912 101.763 108.834 103.493 105.351 98.5921C101.34 92.9477 101.975 88.9058 104.773 86.2034C107.968 83.1166 113.556 83.9062 115.878 88.8032C117.339 92.2599 120.213 88.1869 117.321 82.758C116.366 73.2252 128.53 79.5479 136.1 59.6719C143.746 59.2375 148.359 61.4106 152.078 67.7566C153.764 70.6349 155.808 74.7759 155.391 86.7836C154.859 102.08 152.558 106.887 147.207 109.448C144.74 110.629 142.204 111.08 137.455 110.721L137.409 112.189C137.419 112.494 137.402 112.858 137.462 113.207C137.569 113.821 137.912 114.771 139.083 114.837C141.536 114.977 144.332 114.692 144.332 114.692C144.332 114.692 148.281 124.473 135.337 127.262C117.154 131.18 103.523 122.129 103.523 122.129C103.523 122.129 106.479 120.646 109.07 118.772C113.058 115.89 113.809 114.193 114.012 111.82Z" fill="#FFBDA7"/>
<path d="M109.049 97.8698C109.082 98.8999 109.944 99.7084 110.975 99.6757C112.005 99.6429 112.813 98.7801 112.78 97.75C112.747 96.7199 111.885 95.9113 110.855 95.9441C109.824 95.9768 109.015 96.8388 109.049 97.8698Z" fill="#FAFAFA"/>
<path d="M133.471 95.8294L141.786 98.4128C141.116 100.791 138.711 102.142 136.414 101.429C134.118 100.716 132.8 98.2094 133.471 95.8294Z" fill="#B16668"/>
<path d="M134.013 97.743C136.336 97.668 138.323 99.2601 138.831 101.44C138.067 101.665 137.235 101.683 136.416 101.429C134.768 100.917 133.638 99.4782 133.371 97.8284C133.583 97.793 133.793 97.7499 134.013 97.743Z" fill="#F28F8F"/>
<path d="M152.21 75.056L146.984 73.8035C147.278 72.3364 148.687 71.427 150.13 71.7727C151.572 72.1183 152.504 73.5889 152.21 75.056Z" fill="#263238"/>
<path d="M126.711 74.7906L131.8 72.8614C131.316 71.4245 129.785 70.6926 128.379 71.2253C126.974 71.7589 126.227 73.3553 126.711 74.7906Z" fill="#263238"/>
<path d="M147.079 81.834C146.994 83.0554 147.926 84.1407 149.16 84.2605C150.395 84.3794 151.463 83.4847 151.547 82.2632C151.632 81.0409 150.7 79.9557 149.466 79.8376C148.232 79.7195 147.162 80.6125 147.079 81.834Z" fill="#263238"/>
<path d="M128.842 81.9529C128.758 83.1744 129.69 84.2605 130.924 84.3794C132.158 84.4984 133.226 83.6036 133.311 82.3822C133.396 81.1599 132.463 80.0746 131.23 79.9565C129.996 79.8384 128.927 80.7323 128.842 81.9529Z" fill="#263238"/>
<path d="M137.454 110.72C132.802 110.286 126.984 108.759 123.209 106.725C120.067 105.032 118.533 102.325 117.651 100.568C117.651 100.568 117.531 105.051 121.485 108.36C125.817 111.986 137.463 113.206 137.463 113.206C137.407 112.901 137.41 112.588 137.409 112.189L137.454 110.72Z" fill="#F0997A"/>
<path d="M131.287 163.794C135.495 160.223 137.638 158.811 139.66 158.098C141.681 157.386 148.713 153.926 151.438 153.061C153.166 152.513 154.054 155.261 151.939 157.323C150.311 158.911 145.956 161.132 144.06 162.332C142.164 163.532 138.603 168.459 138.603 168.459L131.287 163.794Z" fill="#F0997A"/>
<path d="M121.751 195.194C107.995 203.02 95.8791 212.772 82.5206 214.774C69.482 216.728 69.0769 205.934 69.3105 197.889C69.6053 187.736 75.2988 155.896 78.2512 145.288C81.3862 134.023 83.4361 129.873 95.6429 125.287C105.722 131.898 103.442 153.735 101.251 162.069C98.965 170.762 95.2696 187.009 95.2696 187.009C95.2696 187.009 111.163 182.004 114.983 179.986C118.802 177.967 125.197 169.383 127.722 166.633C131.159 162.892 133.003 163.248 134.88 163.41C141.025 163.94 142.393 164.368 143.734 165.106C145.074 165.843 145.067 167.401 145.067 167.401C146.697 167.501 149.113 167.299 149.592 169.935C149.908 171.675 149.822 172.056 149.822 172.056C149.822 172.056 150.407 172.078 150.911 172.592C152.355 174.066 150.388 179.605 149.005 181.014C148.034 182.003 146.574 182.21 144.632 182.07C142.98 181.951 143.636 180.236 143.636 180.236L141.354 180.517C136.624 184.346 136.396 189.999 129.948 191.947C128.587 192.357 125.053 193.108 121.751 195.194Z" fill="#FFBDA7"/>
<path d="M145.067 167.4L137.745 166.397L144.852 166.409C144.986 166.742 145.059 167.072 145.067 167.4Z" fill="#F0997A"/>
<path d="M149.823 172.055L141.434 171.5L149.772 171.089C149.826 171.388 149.837 171.713 149.823 172.055Z" fill="#F0997A"/>
<path d="M148.957 175.79C148.731 176.234 148.332 176.584 147.899 176.832C147.466 177.095 146.998 177.272 146.507 177.407L146.613 177.321C146.419 177.77 146.208 178.212 145.994 178.652L145.808 178.441C146.287 178.324 146.768 178.426 147.152 178.681C147.537 178.936 147.786 179.325 147.946 179.723C147.709 179.361 147.393 179.064 147.042 178.869C146.686 178.694 146.257 178.637 145.901 178.734L145.586 178.82L145.716 178.523C145.913 178.075 146.114 177.629 146.332 177.19L146.366 177.121L146.438 177.104C146.898 176.994 147.357 176.827 147.795 176.633C148.223 176.425 148.652 176.183 148.957 175.79Z" fill="#F0997A"/>
<path d="M146.815 177C145.997 177.224 143.816 177.401 143.816 177.401C143.816 177.401 143.79 178 142.883 179.067C142.398 179.637 141.355 180.517 141.355 180.517L143.638 180.236C143.638 180.236 144.132 179.177 146.17 178.652L146.815 177Z" fill="#F0997A"/>
<path d="M95.9597 184.003L95.2701 187.009C89.399 188.921 83.2159 193.491 81.9893 196.844C82.7763 191.6 85.6312 187.467 95.9597 184.003Z" fill="#F0997A"/>
<path d="M157.534 76.162C157.252 76.1241 156.957 76.0887 156.652 76.0577C153.768 75.7534 149.924 75.6862 147.6 76.4551C144.605 77.4515 143.565 78.5558 141.819 78.598C139.924 78.6247 138.671 77.5352 135.135 76.5844C132.261 75.818 127.373 75.9594 123.497 76.3628C123.074 76.4077 122.662 76.4551 122.268 76.5051C121.585 76.5921 120.825 77.4524 120.854 78.4532C120.885 79.46 121.678 80.2487 122.009 80.703C122.157 80.9038 122.296 81.1943 122.403 81.6141C122.805 83.2002 123.031 86.2948 123.845 88.0016C124.174 88.6886 124.65 89.5307 125.431 90.2772C125.686 90.5186 125.948 90.7307 126.244 90.928C126.396 91.0272 126.55 91.1211 126.712 91.2125C127.123 91.4392 127.581 91.6314 128.102 91.7823C128.18 91.8047 128.257 91.8262 128.335 91.8435C128.453 91.8719 128.578 91.903 128.702 91.928C128.826 91.953 128.954 91.9745 129.086 91.9961C129.461 92.0555 129.866 92.0961 130.296 92.1047C130.461 92.1133 130.634 92.1133 130.81 92.1133C131.015 92.1073 131.23 92.1012 131.451 92.0857C136.302 91.7676 138.198 89.3092 139.261 86.8878C140.304 84.5277 139.887 81.3305 141.935 81.278C142.003 81.2771 142.067 81.2771 142.129 81.284C142.191 81.2883 142.253 81.2969 142.31 81.309C143.815 81.6236 143.783 84.5277 144.835 86.6025C145.241 87.4016 145.739 88.1912 146.395 88.8558C146.511 88.9756 146.629 89.0885 146.756 89.1971C146.819 89.2549 146.882 89.3058 146.947 89.3566C147.013 89.4092 147.078 89.4601 147.146 89.5092C147.207 89.554 147.265 89.5963 147.327 89.6368C147.432 89.7066 147.477 89.7359 147.523 89.7635C147.574 89.7962 147.625 89.8264 147.677 89.8549C147.712 89.8773 147.748 89.8971 147.784 89.9178C148.3 90.2014 148.882 90.4212 149.546 90.5505C149.598 90.56 149.652 90.5712 149.706 90.5789C150.328 90.6884 151.018 90.722 151.785 90.6634C155.652 90.3746 156.734 87.8171 157.202 86.2448C157.662 84.6941 157.632 82.0003 157.79 80.5978C157.825 80.2892 157.928 80.0505 158.049 79.8703C158.277 79.529 158.7 78.7204 158.658 77.8567C158.614 76.9998 158.019 76.2275 157.534 76.162ZM137.996 84.7587C137.829 85.6586 137.446 86.9741 136.484 88.1033L136.482 88.1041C135.495 89.254 133.893 90.2134 131.279 90.335C128.581 90.4643 126.985 89.4187 126.026 88.1378C125.966 88.0584 125.909 87.9783 125.858 87.9007C125.801 87.8205 125.751 87.743 125.704 87.6645C125.657 87.5912 125.614 87.5171 125.574 87.4421C125.537 87.3766 125.5 87.3076 125.467 87.2413C125.437 87.187 125.41 87.1344 125.387 87.0809C125.36 87.0318 125.337 86.9835 125.317 86.937C125.28 86.8577 125.244 86.7749 125.21 86.6965V86.6939C125.107 86.4517 125.021 86.2172 124.949 85.9896C124.945 85.9853 124.945 85.9793 124.942 85.9724C124.896 85.8276 124.853 85.6854 124.814 85.55C124.745 85.3044 124.691 85.0733 124.645 84.8699C124.636 84.8251 124.626 84.7811 124.617 84.7397C124.607 84.6984 124.598 84.657 124.589 84.6148C124.213 82.9399 123.785 79.6789 124.654 78.9333C125.483 78.223 127.743 77.4214 131.311 77.7093C131.431 77.7127 131.557 77.7248 131.687 77.7394C132.225 77.7938 132.76 77.8739 133.286 77.9843C133.495 78.0265 133.701 78.0739 133.902 78.1222C134.446 78.2549 134.97 78.4135 135.444 78.5885C135.607 78.648 135.765 78.7101 135.913 78.773C136.093 78.8454 136.262 78.923 136.422 79.0023C136.456 79.0187 136.489 79.0342 136.524 79.0531C136.588 79.0842 136.65 79.1161 136.709 79.1514C137.187 79.4066 137.55 79.6833 137.748 79.9505C138.453 80.8952 138.323 82.9571 137.996 84.7587ZM156.436 83.3356C156.314 84.5122 156.05 87.0887 154.034 88.3472C153.45 88.7127 152.711 88.967 151.788 89.0394C149.303 89.2471 147.799 88.199 146.902 86.9482C146.897 86.9404 146.89 86.9318 146.888 86.9258C146.852 86.8775 146.819 86.8301 146.79 86.7853C146.752 86.7301 146.716 86.6741 146.683 86.6215C146.665 86.5948 146.647 86.5655 146.63 86.5362C146.582 86.456 146.534 86.3724 146.492 86.2922C146.44 86.1974 146.393 86.1043 146.346 86.006C146.322 85.9612 146.301 85.9138 146.279 85.8672C146.266 85.8405 146.257 85.8155 146.245 85.7888C146.226 85.7492 146.21 85.7104 146.195 85.6716C146.182 85.6397 146.167 85.6086 146.157 85.5811C145.986 85.163 145.866 84.7656 145.78 84.4243C145.352 82.7054 145.066 80.7142 145.612 79.7617C146.152 78.8195 148.382 77.7731 150.527 77.4576C151.015 77.3852 151.473 77.3446 151.898 77.3291C151.954 77.3274 152.008 77.3257 152.06 77.3248C152.12 77.3231 152.178 77.3231 152.235 77.3231C152.398 77.3214 152.557 77.3257 152.71 77.33C152.767 77.3326 152.824 77.3343 152.882 77.3386C152.96 77.3447 153.034 77.3481 153.107 77.3567C153.235 77.3645 153.359 77.3791 153.479 77.3955C153.724 77.4257 153.953 77.4653 154.167 77.5145C154.222 77.5274 154.278 77.5403 154.33 77.5541C154.342 77.5558 154.358 77.5593 154.372 77.5645C154.408 77.5731 154.445 77.5817 154.483 77.5946C154.538 77.6076 154.596 77.6265 154.648 77.642C154.716 77.661 154.785 77.686 154.848 77.7076C154.966 77.7489 155.075 77.792 155.177 77.8386C155.197 77.8463 155.215 77.8541 155.235 77.8644C155.564 78.0127 155.818 78.1782 155.995 78.3403C156.673 78.9644 156.586 81.8443 156.436 83.3356Z" fill="#37474F"/>
<path d="M121.647 77.2628L110.595 84.4992C111.639 84.6466 112.82 85.1328 113.744 85.9526L122.22 80.172L121.647 77.2628Z" fill="#37474F"/>
<path d="M148.596 90.891L141.868 94.258L140.137 83.5726C140.261 82.5805 140.8 81.6417 141.204 81.4788L148.596 90.891Z" fill="#F0997A"/>
<path opacity="0.8" d="M198.544 177.388C198.536 177.306 198.527 177.233 198.503 177.16C198.511 177.144 198.503 177.127 198.494 177.111C198.487 177.029 198.462 176.956 198.438 176.891C198.405 176.776 198.357 176.67 198.291 176.573C198.275 176.524 198.242 176.483 198.209 176.443C198.185 176.41 198.169 176.377 198.136 176.353C198.087 176.288 198.038 176.239 197.973 176.19C197.973 176.19 197.965 176.182 197.957 176.174C197.891 176.125 197.818 176.084 197.745 176.051C197.296 175.839 196.717 175.896 196.072 176.263L70.9926 248.228C69.622 249.02 68.5049 250.227 68.5049 253.721L68.5057 257.472C68.5057 258.787 69.9246 259.608 71.0607 258.953L196.072 186.981C197.442 186.189 198.56 184.265 198.56 182.674V177.699C198.56 177.593 198.552 177.487 198.544 177.388Z" fill="#455A64"/>
<path opacity="0.9" d="M69.3615 258.952L69.271 258.907L66.6531 257.386C65.942 256.985 65.4653 256.267 65.3515 255.465C65.3369 255.344 65.3291 255.223 65.3291 255.102V250.737C65.3291 249.858 65.6687 248.872 66.2083 248.037L66.242 248.059L69.3098 249.827C68.8323 250.667 68.5461 251.656 68.5073 253.455V257.469C68.5073 257.703 68.5599 257.908 68.6211 258.082C68.8245 258.612 69.2409 258.884 69.3615 258.952Z" fill="#263238"/>
<path opacity="0.6" d="M197.741 176.055C197.295 175.836 196.72 175.896 196.07 176.267L70.9962 248.225C70.754 248.361 70.5273 248.527 70.3075 248.709C70.1567 248.831 70.0196 248.966 69.8912 249.11C69.6791 249.322 69.4981 249.564 69.3386 249.836L66.2139 248.043C66.3725 247.793 66.5544 247.552 66.7431 247.332C66.8112 247.256 66.8793 247.188 66.9397 247.12C67.0078 247.052 67.0759 246.984 67.1517 246.923C67.2198 246.855 67.2879 246.795 67.3638 246.741C67.5077 246.621 67.6586 246.522 67.8103 246.431L192.899 174.464C193.61 174.048 194.245 174.04 194.699 174.32C195.154 174.595 197.211 175.775 197.741 176.055Z" fill="#455A64"/>
<path opacity="0.9" d="M69.3613 258.954C69.3841 258.967 69.3998 258.976 69.3998 258.976L69.3613 258.954Z" fill="#263238"/>
<path d="M77.9072 251.166V248.108C77.9072 247.889 78.0486 247.654 78.1822 247.653L80.8768 247.628C81.0553 247.626 81.0553 248.015 80.8768 248.219L78.1822 251.304C78.0495 251.456 77.9072 251.385 77.9072 251.166Z" fill="white"/>
<path d="M84.1826 247.543V244.485C84.1826 244.266 84.324 244.031 84.4576 244.03L87.1522 244.005C87.3306 244.003 87.3306 244.392 87.1522 244.596L84.4576 247.681C84.3248 247.833 84.1826 247.762 84.1826 247.543Z" fill="white"/>
<path d="M87.4921 245.947C87.3784 246.013 87.2861 245.943 87.2861 245.791V242.651C87.2861 242.499 87.3784 242.324 87.4921 242.258C87.6059 242.193 87.6982 242.262 87.6982 242.413V245.554C87.6982 245.706 87.6059 245.882 87.4921 245.947Z" fill="white"/>
<path d="M74.7362 252.997V249.939C74.7362 249.72 74.594 249.649 74.4613 249.802L71.7666 252.887C71.5882 253.092 71.5882 253.481 71.7666 253.479L74.4613 253.453C74.594 253.45 74.7362 253.217 74.7362 252.997Z" fill="white"/>
<path d="M71.4267 255.224C71.5405 255.158 71.6327 254.982 71.6327 254.83V251.69C71.6327 251.538 71.5405 251.469 71.4267 251.534C71.3129 251.6 71.2207 251.776 71.2207 251.927V255.068C71.2207 255.219 71.3129 255.289 71.4267 255.224Z" fill="white"/>
<path d="M192.5 183.146C192.369 183.146 192.263 183.04 192.263 182.909V181.51C192.263 181.425 192.308 181.347 192.382 181.304L193.503 180.657C193.617 180.591 193.761 180.631 193.827 180.744C193.893 180.857 193.854 181.003 193.74 181.068L192.738 181.647V182.91C192.737 183.04 192.631 183.146 192.5 183.146Z" fill="white"/>
<path d="M195.552 181.385C195.421 181.385 195.315 181.279 195.315 181.148V180.158L194.549 180.6C194.436 180.666 194.291 180.627 194.225 180.513C194.16 180.399 194.198 180.254 194.312 180.189L195.434 179.542C195.507 179.499 195.597 179.499 195.671 179.542C195.744 179.584 195.79 179.662 195.79 179.747V181.147C195.789 181.278 195.682 181.385 195.552 181.385Z" fill="white"/>
<path d="M194.431 184.678C194.349 184.678 194.269 184.636 194.225 184.559C194.16 184.446 194.198 184.302 194.312 184.235L195.315 183.656V182.393C195.315 182.262 195.421 182.156 195.552 182.156C195.683 182.156 195.789 182.262 195.789 182.393V183.793C195.789 183.877 195.744 183.956 195.67 183.998L194.548 184.646C194.512 184.668 194.472 184.678 194.431 184.678Z" fill="white"/>
<path d="M192.5 185.793C192.458 185.793 192.418 185.782 192.382 185.761C192.308 185.719 192.263 185.64 192.263 185.556V184.156C192.263 184.025 192.369 183.919 192.5 183.919C192.631 183.919 192.737 184.025 192.737 184.156V185.146L193.502 184.703C193.616 184.638 193.76 184.677 193.826 184.79C193.892 184.903 193.853 185.048 193.739 185.114L192.618 185.762C192.582 185.782 192.541 185.793 192.5 185.793Z" fill="white"/>
<path d="M190.766 183.93L190.311 184.119C190.288 184.134 190.259 184.119 190.251 184.089C190.221 183.975 190.183 183.877 190.137 183.794C190.122 183.771 190.137 183.703 190.16 183.65L190.416 183.075C190.439 183.022 190.447 182.961 190.432 182.947L190.069 182.674C190.054 182.659 190.009 182.697 189.979 182.75L189.661 183.272C189.631 183.325 189.585 183.363 189.563 183.356C189.48 183.348 189.389 183.348 189.291 183.364C189.268 183.372 189.245 183.348 189.237 183.31L189.192 182.735C189.184 182.705 189.161 182.69 189.131 182.705L188.639 182.992C188.609 183.008 188.579 183.053 188.579 183.098L188.525 183.711C188.525 183.757 188.495 183.817 188.465 183.847C188.381 183.931 188.298 184.021 188.223 184.12C188.192 184.158 188.147 184.188 188.124 184.18L187.761 183.999C187.746 183.991 187.701 184.029 187.678 184.09L187.361 184.695C187.33 184.747 187.315 184.808 187.33 184.823L187.625 185.141C187.641 185.164 187.633 185.217 187.618 185.277C187.58 185.398 187.542 185.527 187.519 185.648C187.511 185.701 187.474 185.754 187.443 185.776L187.005 186.101C186.974 186.117 186.951 186.17 186.951 186.207V186.865C186.951 186.911 186.974 186.933 186.997 186.919L187.45 186.722C187.48 186.714 187.504 186.73 187.511 186.752C187.541 186.866 187.579 186.964 187.632 187.055C187.639 187.077 187.632 187.138 187.602 187.199L187.352 187.766C187.322 187.826 187.314 187.888 187.336 187.894L187.699 188.175C187.715 188.182 187.752 188.152 187.783 188.099L188.1 187.577C188.138 187.525 188.176 187.487 188.198 187.487C188.289 187.502 188.38 187.502 188.471 187.479C188.501 187.479 188.523 187.501 188.523 187.539L188.577 188.106C188.577 188.144 188.607 188.16 188.637 188.144L189.129 187.857C189.16 187.842 189.182 187.789 189.19 187.751L189.235 187.131C189.243 187.093 189.266 187.032 189.304 187.002C189.386 186.919 189.462 186.828 189.538 186.73C189.576 186.684 189.614 186.654 189.636 186.67L189.999 186.844C190.022 186.859 190.06 186.821 190.09 186.761L190.407 186.156C190.437 186.095 190.445 186.035 190.429 186.02L190.141 185.702C190.126 185.687 190.126 185.627 190.141 185.574C190.187 185.452 190.217 185.324 190.24 185.203C190.255 185.15 190.285 185.089 190.316 185.067L190.754 184.749C190.784 184.727 190.815 184.681 190.815 184.635V183.977C190.818 183.937 190.796 183.915 190.766 183.93ZM188.882 186.539C188.42 186.804 188.05 186.517 188.05 185.904C188.05 185.291 188.421 184.572 188.882 184.308C189.343 184.043 189.722 184.322 189.722 184.943C189.722 185.556 189.343 186.267 188.882 186.539Z" fill="white"/>
<path d="M115.828 228.264V226.743L92.1265 240.426C91.674 240.688 91.3076 241.24 91.3076 241.66C91.3076 242.08 91.6748 242.209 92.1265 241.948L115.828 228.264Z" fill="#2980B9"/>
<path opacity="0.5" d="M182.994 188.025C182.896 188.043 182.788 188.083 182.675 188.149L115.828 226.742V228.264L182.678 189.668C182.904 189.537 183.109 189.334 183.256 189.111C183.33 189 183.39 188.882 183.431 188.768C183.473 188.653 183.495 188.54 183.495 188.435C183.495 188.121 183.288 187.97 182.994 188.025Z" fill="white"/>
<path d="M117.013 226.925C117.013 227.794 116.477 228.801 115.823 229.188C115.168 229.563 114.643 229.156 114.643 228.287C114.643 227.418 115.168 226.399 115.823 226.024C116.477 225.648 117.013 226.045 117.013 226.925Z" fill="#2980B9"/>
<path opacity="0.5" d="M117.013 226.925C117.013 227.794 116.477 228.801 115.823 229.188C115.168 229.563 114.643 229.156 114.643 228.287C114.643 227.418 115.168 226.399 115.823 226.024C116.477 225.648 117.013 226.045 117.013 226.925Z" fill="white"/>
<path d="M116.593 227.165C116.593 227.727 116.247 228.377 115.825 228.626C115.402 228.869 115.062 228.606 115.062 228.045C115.062 227.483 115.401 226.826 115.825 226.584C116.247 226.341 116.593 226.598 116.593 227.165Z" fill="#2980B9"/>
</svg>
