<svg width="81" height="75" viewBox="0 0 81 75" fill="none" xmlns="http://www.w3.org/2000/svg">
<path d="M41.0829 46.6443C53.9438 46.6443 64.3698 36.2027 64.3698 23.3222C64.3698 10.4417 53.9438 0 41.0829 0C28.2218 0 17.7959 10.4417 17.7959 23.3222C17.7959 36.2027 28.2218 46.6443 41.0829 46.6443Z" fill="#2980B9"/>
<path d="M28.2825 28.6049C28.2825 28.6049 28.1624 32.4555 34.0791 33.3455C34.0791 33.3455 38.3976 38.7354 43.9039 33.1662C43.9039 33.1662 45.62 36.2471 49.5237 34.6487C49.5237 34.6487 51.5345 37.8476 56.6827 35.2412C56.6827 35.2412 54.9077 34.7077 55.1435 33.1662C55.3793 31.6246 54.5387 30.2624 53.9557 29.4949C53.9557 29.4949 55.6718 29.0794 55.8487 26.2347C55.8487 26.2347 62.7697 21.8505 55.9666 16.7558C55.9666 16.7558 55.198 11.1865 48.6329 12.0743C48.6329 12.0743 45.3776 7.80827 39.9369 11.3637C39.9369 11.3637 34.7297 9.11366 31.5356 13.4978C31.5356 13.4978 25.9223 14.5758 26.8371 20.2281L28.2825 28.6049Z" fill="white"/>
<path d="M28.4429 28.4701C30.6296 27.5819 31.6835 25.0867 30.7969 22.8964C29.9103 20.7064 27.4187 19.6508 25.2319 20.5388C23.0451 21.4267 21.991 23.922 22.8777 26.1123C23.7643 28.3023 26.2559 29.358 28.4429 28.4701Z" fill="#2980B9"/>
<path d="M39.5393 28.4016C41.899 28.4016 43.812 26.4857 43.812 24.1225C43.812 21.7591 41.899 19.8433 39.5393 19.8433C37.1796 19.8433 35.2666 21.7591 35.2666 24.1225C35.2666 26.4857 37.1796 28.4016 39.5393 28.4016Z" fill="#2980B9"/>
<path d="M56.5601 26.6698C61.3218 24.6385 61.0315 17.6348 56.1234 16.0079C55.7195 12.5794 52.0363 10.2419 48.7308 11.3549C46.7833 8.25868 42.122 7.93506 39.751 10.653C36.7642 9.18798 32.7797 9.99702 31.1794 13.0101C27.9044 13.0101 25.5421 16.4256 25.9395 19.5852C19.9594 21.4372 21.5728 30.1902 27.8717 29.7223C28.3083 32.3025 31.4479 34.4956 34.0024 34.2267C34.7999 35.1765 35.8726 35.8543 37.0721 36.1662C37.6236 36.312 38.1914 36.3855 38.7619 36.3848C39.7031 36.3953 40.6347 36.1935 41.4873 35.794C42.3401 35.3947 43.092 34.8081 43.6874 34.078C44.3725 34.8199 45.2603 35.344 46.2403 35.585C47.2204 35.8261 48.2496 35.7734 49.2002 35.4336C50.308 36.5125 51.79 37.1199 53.3354 37.1283C54.9379 37.1283 56.3112 36.4723 56.9727 35.895C57.0614 35.8178 57.1304 35.7205 57.1736 35.611C57.217 35.5016 57.2336 35.3836 57.2223 35.2664C57.2107 35.1494 57.1712 35.0368 57.1072 34.9379C57.0435 34.8393 56.9568 34.7573 56.8548 34.699C55.9204 34.1589 55.9029 33.6669 55.868 32.6829C55.8396 31.8673 55.8047 30.8812 55.1431 29.7813C55.5848 29.391 55.9394 28.9117 56.1835 28.3747C56.4276 27.8379 56.5559 27.2554 56.5601 26.6654V26.6698ZM23.6448 24.5772C23.6466 23.5968 24.0363 22.657 24.7288 21.9638C25.4214 21.2707 26.36 20.8808 27.339 20.8797C32.2339 21.0655 32.2317 28.0955 27.339 28.2769C26.3595 28.2759 25.4205 27.8855 24.728 27.192C24.0354 26.4984 23.6459 25.5581 23.6448 24.5772ZM55.0558 26.2784C55.1049 26.6468 55.0783 27.0214 54.9772 27.3789C54.8761 27.7366 54.703 28.0697 54.4683 28.3576C54.2336 28.6456 53.9425 28.8822 53.6129 29.053C53.2832 29.2237 52.9221 29.325 52.5518 29.3506C52.1817 29.3759 51.8101 29.3252 51.4604 29.201C51.1104 29.077 50.7897 28.8824 50.5178 28.6294C50.2462 28.3762 50.029 28.0701 49.8801 27.7296C49.7312 27.3892 49.6537 27.0218 49.6522 26.6501C49.6419 26.4608 49.5594 26.2826 49.422 26.1522C49.2845 26.0217 49.1024 25.9491 48.9131 25.9491C48.7236 25.9491 48.5415 26.0217 48.4042 26.1522C48.2667 26.2826 48.1843 26.4608 48.1741 26.6501C48.1304 29.5517 51.2067 31.653 53.8812 30.5663C54.3419 31.336 54.3659 32.0248 54.3921 32.7529C54.4205 33.5729 54.4532 34.4737 55.1912 35.2784C54.4436 35.6164 53.617 35.7404 52.8033 35.6361C51.9896 35.532 51.2206 35.2036 50.5822 34.688C50.7552 34.5529 50.9191 34.4068 51.0735 34.2507C51.2027 34.1099 51.2726 33.9247 51.2687 33.7334C51.2647 33.5422 51.187 33.3599 51.0521 33.2248C50.9169 33.0894 50.7351 33.0118 50.544 33.0078C50.3532 33.0037 50.1681 33.0739 50.0277 33.2033C48.4011 34.8957 45.4428 34.4978 44.3053 32.449C44.2404 32.3366 44.1472 32.2432 44.0348 32.1783C43.9226 32.1133 43.7953 32.0792 43.6656 32.0794C43.5359 32.0796 43.4088 32.114 43.2966 32.1789C43.1844 32.2436 43.091 32.3368 43.0259 32.449C42.486 33.3988 41.6447 34.1412 40.6358 34.5577C39.6267 34.9745 38.5078 35.0418 37.4563 34.7492C35.8494 34.3119 34.1312 32.9322 34.1312 30.3323C34.1209 30.143 34.0384 29.9648 33.9011 29.8344C33.7635 29.7039 33.5814 29.6313 33.3921 29.6313C33.2026 29.6313 33.0205 29.7039 32.8832 29.8344C32.7457 29.9648 32.6633 30.143 32.6531 30.3323C32.647 31.1554 32.7989 31.9718 33.1007 32.7376C31.4676 32.567 29.5288 30.9883 29.3017 29.3724C31.9806 28.3404 33.3408 24.914 31.9806 22.2901C32.4409 22.0933 32.9363 21.992 33.4369 21.992C33.9373 21.992 34.4327 22.0933 34.8931 22.2901C33.1793 25.6421 35.7534 29.8097 39.5326 29.7595C40.9035 29.757 42.2176 29.2102 43.1866 28.2387C44.1553 27.2672 44.6998 25.9502 44.7005 24.5772C44.7005 19.8826 38.8776 17.637 35.749 21.0524C35.0316 20.6955 34.2412 20.5097 33.4402 20.5097C32.6389 20.5097 31.8488 20.6955 31.1313 21.0524C30.6541 20.5374 30.0772 20.1252 29.4356 19.841C28.7941 19.5567 28.1016 19.4065 27.4001 19.3993C27.3359 18.7543 27.4014 18.103 27.5927 17.4837C27.7839 16.8645 28.097 16.2898 28.5136 15.7937C28.8852 15.3524 29.3559 15.0058 29.8873 14.7823C30.4187 14.5587 30.9953 14.4647 31.5702 14.5079C31.7215 14.5185 31.8723 14.4821 32.0025 14.4039C32.1324 14.3257 32.2354 14.2093 32.2972 14.0706C32.5481 13.4987 32.9192 12.9877 33.3851 12.5726C33.8513 12.1575 34.4015 11.848 34.9979 11.6654C36.28 11.2762 37.6581 11.3537 38.8886 11.884C38.6432 12.3603 38.4667 12.869 38.3646 13.395C37.1849 13.2948 36.0031 13.5631 34.982 14.1629C33.9609 14.7628 33.1502 15.6648 32.6618 16.7448C32.6214 16.8338 32.5987 16.93 32.5954 17.0277C32.5922 17.1254 32.6081 17.2229 32.6424 17.3144C32.6767 17.406 32.7284 17.4899 32.7952 17.5614C32.8618 17.6329 32.9419 17.6905 33.0308 17.731C33.1197 17.7715 33.2155 17.794 33.3131 17.7974C33.4107 17.8007 33.5081 17.7848 33.5995 17.7505C33.691 17.7161 33.7746 17.6641 33.846 17.5974C33.9174 17.5306 33.9751 17.4505 34.0155 17.3614C34.4207 16.4667 35.1228 15.7401 36.0022 15.3049C36.8819 14.8696 37.8847 14.7526 38.8405 14.9737C38.9458 14.9978 39.0549 14.9985 39.1606 14.9758C39.266 14.9531 39.3654 14.9075 39.4516 14.8423C39.5376 14.7771 39.6086 14.6938 39.659 14.5983C39.7097 14.5027 39.7387 14.3973 39.7444 14.2893C39.7852 13.4911 40.0509 12.7209 40.5107 12.0677C40.5321 12.0433 40.5511 12.017 40.5675 11.989C42.3665 9.48754 46.3772 9.78273 47.7505 12.6078C47.8357 12.779 47.9839 12.9103 48.164 12.9739C48.3442 13.0376 48.542 13.0286 48.7155 12.9489C51.377 11.6872 54.6104 13.6617 54.6956 16.6158C54.7023 16.7772 54.7617 16.932 54.8646 17.0564C54.9674 17.1807 55.1082 17.2679 55.2654 17.3046C59.4137 18.2907 59.632 24.1727 55.5711 25.4694C55.4051 25.5218 55.263 25.6314 55.17 25.7785C55.077 25.9259 55.0388 26.1013 55.0624 26.274L55.0558 26.2784ZM39.5304 20.8797C40.5094 20.8808 41.448 21.2707 42.1406 21.9638C42.8329 22.657 43.2228 23.5968 43.2246 24.5772C43.039 29.4796 36.0197 29.4774 35.8363 24.5772C35.8381 23.5968 36.2278 22.657 36.9203 21.9638C37.6129 21.2707 38.5515 20.8808 39.5304 20.8797Z" fill="#194C73"/>
<path d="M50.9644 16.9088C51.1031 16.7702 51.181 16.5821 51.1813 16.3859C51.1815 16.1897 51.104 16.0015 50.9655 15.8626C50.8271 15.7237 50.6394 15.6455 50.4433 15.6453C50.2475 15.6451 50.0595 15.7229 49.9208 15.8615C48.3336 17.4774 45.5215 16.3097 45.5368 14.0422C45.5423 13.9416 45.5272 13.841 45.4925 13.7464C45.4578 13.6519 45.4043 13.5654 45.3351 13.4923C45.2658 13.4191 45.1827 13.3609 45.0903 13.3211C44.9977 13.2813 44.8984 13.2607 44.7977 13.2607C44.6971 13.2607 44.5975 13.2813 44.5052 13.3211C44.4128 13.3609 44.3294 13.4191 44.2604 13.4923C44.1912 13.5654 44.1377 13.6519 44.103 13.7464C44.0683 13.841 44.0532 13.9416 44.0587 14.0422C44.0369 17.6129 48.4668 19.4497 50.9644 16.9067V16.9088Z" fill="#194C73"/>
<path d="M56.0446 21.0787C56.0953 20.8887 56.0686 20.6864 55.9702 20.5162C55.8719 20.3461 55.7104 20.222 55.5206 20.1712C54.7853 19.9816 54.0157 19.9703 53.2751 20.1384C52.5348 20.3065 51.8449 20.6491 51.2632 21.1377C50.7445 20.7811 50.1358 20.5783 49.507 20.5523C48.8784 20.5264 48.2551 20.6785 47.7088 20.9912C47.6248 21.0399 47.5512 21.1046 47.4922 21.1818C47.4331 21.259 47.3899 21.347 47.365 21.4409C47.3399 21.5348 47.3335 21.6327 47.3462 21.7291C47.3591 21.8255 47.3905 21.9184 47.4392 22.0025C47.4879 22.0867 47.5525 22.1604 47.6296 22.2194C47.7066 22.2785 47.7944 22.3218 47.8883 22.3469C47.982 22.3721 48.0798 22.3784 48.1761 22.3655C48.2721 22.3528 48.3649 22.3211 48.449 22.2726C48.7441 22.1049 49.0795 22.0216 49.4188 22.0316C49.7578 22.0417 50.0877 22.1449 50.3724 22.3299C50.6571 22.5149 50.8855 22.7744 51.0331 23.0805C51.1805 23.3867 51.2412 23.7273 51.2086 24.0656C51.1888 24.2606 51.2468 24.4557 51.3706 24.6079C51.4942 24.76 51.6732 24.8567 51.868 24.8768C52.0627 24.8967 52.2577 24.8385 52.4094 24.7146C52.5614 24.5908 52.6581 24.4115 52.678 24.2165C52.7498 23.5272 52.604 22.8328 52.261 22.231C52.659 21.9065 53.1275 21.6803 53.629 21.5705C54.1303 21.4608 54.6504 21.4705 55.1473 21.5991C55.3351 21.6468 55.5342 21.619 55.7016 21.5218C55.8693 21.4246 55.9924 21.2655 56.0446 21.0787Z" fill="#194C73"/>
<path d="M79.832 48.4636H73.6707C73.3961 48.4511 73.1369 48.333 72.9472 48.1343C72.7573 47.9353 72.6514 47.6707 72.6514 47.3954C72.6514 47.1201 72.7573 46.8556 72.9472 46.6566C73.1369 46.4576 73.3961 46.3397 73.6707 46.3273H79.832C80.1064 46.3397 80.3656 46.4576 80.5555 46.6566C80.7453 46.8556 80.8514 47.1201 80.8514 47.3954C80.8514 47.6707 80.7453 47.9353 80.5555 48.1343C80.3656 48.333 80.1064 48.4511 79.832 48.4636Z" fill="#2980B9"/>
<path d="M70.2101 48.5663C70.8552 48.5663 71.3783 48.0426 71.3783 47.3965C71.3783 46.7504 70.8552 46.2267 70.2101 46.2267C69.5651 46.2267 69.042 46.7504 69.042 47.3965C69.042 48.0426 69.5651 48.5663 70.2101 48.5663Z" fill="#2980B9"/>
<path d="M3.18523 70.9789H9.34429C9.61879 70.9914 9.87795 71.1092 10.0678 71.3082C10.2577 71.5072 10.3636 71.7717 10.3636 72.047C10.3636 72.3223 10.2577 72.5869 10.0678 72.7859C9.87795 72.9849 9.61879 73.1027 9.34429 73.1152H3.18523C3.04111 73.1217 2.89717 73.099 2.76209 73.0483C2.62701 72.9975 2.50359 72.9199 2.39929 72.82C2.295 72.7201 2.21199 72.6002 2.15529 72.4673C2.09857 72.3346 2.06934 72.1916 2.06934 72.047C2.06934 71.9025 2.09857 71.7595 2.15529 71.6268C2.21199 71.4938 2.295 71.3738 2.39929 71.2741C2.50359 71.1742 2.62701 71.0965 2.76209 71.0458C2.89717 70.9951 3.04111 70.9723 3.18523 70.9789Z" fill="#2980B9"/>
<path d="M11.6387 72.0481C11.6382 71.8161 11.7066 71.5892 11.835 71.3961C11.9634 71.203 12.1462 71.0526 12.3601 70.9636C12.574 70.8746 12.8095 70.8512 13.0367 70.8962C13.2639 70.9415 13.4726 71.0532 13.6364 71.2172C13.8002 71.3812 13.9117 71.5903 13.9568 71.8179C14.0019 72.0453 13.9785 72.2812 13.8896 72.4955C13.8008 72.7098 13.6505 72.8928 13.4577 73.0214C13.2649 73.15 13.0384 73.2184 12.8067 73.218C12.4969 73.218 12.1998 73.0946 11.9808 72.8753C11.7617 72.656 11.6387 72.3584 11.6387 72.0481Z" fill="#2980B9"/>
<path d="M3.28985 66.5602C2.86873 66.5602 2.47395 66.4723 2.10548 66.2967C1.75456 66.1034 1.5791 65.8222 1.5791 65.4531V48.3726C1.5791 47.986 1.75456 47.7136 2.10548 47.5555C2.47395 47.3799 2.86873 47.292 3.28985 47.292C3.72849 47.292 4.12327 47.3799 4.47419 47.5555C4.82511 47.7136 5.00058 47.986 5.00058 48.3726V55.5422L10.7118 47.7927C10.9399 47.4588 11.247 47.292 11.633 47.292C11.9313 47.292 12.2295 47.3799 12.5278 47.5555C12.8437 47.7313 13.1068 47.9508 13.3174 48.2145C13.5279 48.478 13.6332 48.7592 13.6332 49.0579C13.6332 49.1458 13.6157 49.2512 13.5806 49.3743C13.5455 49.4974 13.4841 49.6115 13.3964 49.7169L8.71156 55.6214L14.4491 64.3725C14.5719 64.5658 14.6334 64.7679 14.6334 64.9786C14.6334 65.2598 14.5281 65.5323 14.3175 65.7958C14.1245 66.0595 13.8701 66.279 13.5543 66.4548C13.2384 66.6129 12.9138 66.6921 12.5805 66.6921C12.3348 66.6921 12.1067 66.6394 11.8962 66.534C11.7032 66.4284 11.5277 66.2615 11.3698 66.033L6.42182 58.5208L5.00058 60.3131V65.4531C5.00058 65.8222 4.82511 66.1034 4.47419 66.2967C4.12327 66.4723 3.72849 66.5602 3.28985 66.5602ZM17.5478 66.5602C17.0565 66.5602 16.6529 66.4461 16.3371 66.2176C16.0213 65.9891 15.8634 65.7343 15.8634 65.4531V55.0942C15.8634 54.7778 16.0213 54.523 16.3371 54.3297C16.6529 54.1364 17.0565 54.0398 17.5478 54.0398C17.9689 54.0398 18.3198 54.1364 18.6005 54.3297C18.8988 54.523 19.048 54.7778 19.048 55.0942V55.8848C19.3111 55.3754 19.741 54.9184 20.3376 54.5143C20.9517 54.0925 21.6974 53.8817 22.5747 53.8817C23.3994 53.8817 24.1539 54.1277 24.8381 54.6197C25.5224 55.0942 26.0665 55.7355 26.4699 56.5439C26.8911 57.3523 27.1016 58.2483 27.1016 59.2325V65.4531C27.1016 65.8222 26.9262 66.1034 26.5752 66.2967C26.2243 66.4723 25.8296 66.5602 25.3909 66.5602C25.0049 66.5602 24.6277 66.4723 24.2591 66.2967C23.8906 66.1034 23.7065 65.8222 23.7065 65.4531V59.2325C23.7065 58.8282 23.6011 58.4506 23.3906 58.099C23.1976 57.7476 22.9256 57.4577 22.5747 57.2292C22.2239 56.9832 21.8379 56.8603 21.4167 56.8603C21.0658 56.8603 20.7236 56.9569 20.3902 57.1502C20.0569 57.3435 19.7849 57.6157 19.5743 57.9674C19.3638 58.3187 19.2585 58.7405 19.2585 59.2325V65.4531C19.2585 65.7343 19.0918 65.9891 18.7584 66.2176C18.4251 66.4461 18.0215 66.5602 17.5478 66.5602ZM34.8509 66.7975C33.8333 66.7975 32.8945 66.5515 32.0347 66.0595C31.1749 65.5498 30.4819 64.882 29.9555 64.0561C29.4292 63.2303 29.1661 62.3427 29.1661 61.394V59.2325C29.1661 58.2835 29.4204 57.405 29.9293 56.5966C30.4381 55.7707 31.1223 55.1117 31.9821 54.6197C32.8593 54.1277 33.8156 53.8817 34.8509 53.8817C35.886 53.8817 36.8336 54.1277 37.6933 54.6197C38.5706 55.0942 39.2638 55.7355 39.7725 56.5439C40.2989 57.3523 40.5622 58.2483 40.5622 59.2325V61.394C40.5622 62.3252 40.2989 63.2038 39.7725 64.0299C39.2461 64.8558 38.5444 65.5235 37.6671 66.033C36.8074 66.5427 35.8685 66.7975 34.8509 66.7975ZM34.8509 63.8189C35.2721 63.8189 35.6581 63.7047 36.0089 63.4762C36.3598 63.2477 36.6406 62.9491 36.8512 62.58C37.0617 62.1934 37.1669 61.798 37.1669 61.394V59.2325C37.1669 58.8282 37.0617 58.4506 36.8512 58.099C36.6406 57.7476 36.3598 57.4577 36.0089 57.2292C35.6755 56.9832 35.2895 56.8603 34.8509 56.8603C34.4298 56.8603 34.0438 56.9744 33.6929 57.2029C33.342 57.4312 33.0613 57.7301 32.8506 58.099C32.6576 58.4506 32.5611 58.8282 32.5611 59.2325V61.394C32.5611 61.798 32.6576 62.1934 32.8506 62.58C33.0613 62.9491 33.342 63.2477 33.6929 63.4762C34.0438 63.7047 34.4298 63.8189 34.8509 63.8189ZM47.0649 66.8501C46.7664 66.8501 46.4946 66.8062 46.249 66.7183C46.0032 66.6306 45.8366 66.4636 45.7488 66.2176L41.6693 55.8059C41.6344 55.6828 41.608 55.5862 41.5905 55.516C41.5728 55.4281 41.5641 55.3577 41.5641 55.305C41.5641 55.0238 41.6781 54.7865 41.9062 54.5932C42.1518 54.3824 42.4503 54.2156 42.8011 54.0925C43.152 53.9694 43.4679 53.9079 43.7487 53.9079C43.9766 53.9079 44.1786 53.9519 44.3539 54.0398C44.5469 54.1277 44.6786 54.2683 44.7486 54.4616L47.3806 61.9474L49.3545 55.4368C49.4423 55.1381 49.5914 54.9536 49.8021 54.8832C50.0125 54.7955 50.2494 54.7515 50.5125 54.7515C50.7758 54.7515 51.0127 54.7955 51.2232 54.8832C51.4339 54.9536 51.583 55.1381 51.6705 55.4368L53.6182 61.9738L56.2764 54.4616C56.3993 54.0925 56.715 53.9079 57.2239 53.9079C57.5047 53.9079 57.8204 53.9694 58.1715 54.0925C58.5223 54.2156 58.8206 54.3824 59.0662 54.5932C59.3118 54.8042 59.4347 55.0502 59.4347 55.3314C59.4347 55.4016 59.426 55.4808 59.4083 55.5687C59.3909 55.6566 59.3647 55.7355 59.3295 55.8059L55.25 66.244C55.1623 66.4723 54.9957 66.6306 54.7501 66.7183C54.5042 66.8062 54.2324 66.8501 53.9342 66.8501C53.6182 66.8501 53.3287 66.7975 53.0654 66.6921C52.8023 66.5867 52.6268 66.4373 52.5393 66.244L50.5125 60.4977L48.486 66.2176C48.4334 66.4284 48.2668 66.5867 47.986 66.6921C47.7052 66.7975 47.3983 66.8501 47.0649 66.8501ZM62.8662 66.5602C62.375 66.5602 61.9715 66.4461 61.6556 66.2176C61.3399 65.9891 61.1818 65.7343 61.1818 65.4531V47.7927C61.1818 47.4765 61.3399 47.2216 61.6556 47.0283C61.9715 46.835 62.375 46.7383 62.8662 46.7383C63.34 46.7383 63.7437 46.835 64.0771 47.0283C64.4105 47.2216 64.577 47.4765 64.577 47.7927V65.4531C64.577 65.7343 64.4105 65.9891 64.0771 66.2176C63.7437 66.4461 63.34 66.5602 62.8662 66.5602ZM73.3432 66.7975C72.0974 66.7975 70.992 66.5777 70.027 66.1384C69.0794 65.6816 68.3338 65.0491 67.7897 64.2407C67.2459 63.4148 66.9739 62.4658 66.9739 61.394V59.1534C66.9739 58.2044 67.2284 57.3346 67.7371 56.5439C68.2635 55.7355 68.9567 55.0942 69.8163 54.6197C70.6937 54.1277 71.6675 53.8817 72.7377 53.8817C73.7204 53.8817 74.6151 54.0925 75.4223 54.5143C76.2469 54.9361 76.9137 55.516 77.4226 56.2539C77.9313 56.9919 78.1859 57.853 78.1859 58.8372C78.1859 59.5926 78.063 60.1375 77.8174 60.4714C77.5718 60.7876 77.2558 60.9897 76.8698 61.0776C76.5015 61.148 76.1155 61.1829 75.7118 61.1829H70.3691V61.5785C70.3691 62.334 70.6499 62.9491 71.2112 63.4235C71.7904 63.8803 72.536 64.1088 73.4484 64.1088C74.0274 64.1088 74.5099 64.0209 74.8959 63.8453C75.2819 63.6695 75.6153 63.5027 75.8961 63.3444C76.1768 63.1863 76.4399 63.1071 76.6856 63.1071C76.9489 63.1071 77.177 63.1951 77.37 63.3709C77.563 63.5464 77.7121 63.7574 77.8174 64.0034C77.9226 64.2319 77.9752 64.434 77.9752 64.6098C77.9752 64.9085 77.7822 65.2336 77.3962 65.585C77.0279 65.9189 76.4926 66.2088 75.7908 66.4548C75.1066 66.6833 74.2907 66.7975 73.3432 66.7975ZM70.3691 59.1798H74.2117C74.5099 59.1798 74.7116 59.1359 74.8171 59.048C74.9398 58.9426 75.0011 58.7493 75.0011 58.4681C75.0011 58.064 74.8872 57.7036 74.659 57.3872C74.4486 57.0711 74.1678 56.8251 73.8169 56.6493C73.4835 56.4735 73.1063 56.3858 72.6851 56.3858C72.2816 56.3858 71.9044 56.4735 71.5535 56.6493C71.2024 56.8074 70.9129 57.0446 70.685 57.361C70.4743 57.6597 70.3691 58.0201 70.3691 58.4416V59.1798Z" fill="#194C73"/>
<path d="M23.9147 73.7361C23.6423 73.7361 23.3969 73.7029 23.179 73.6367C22.9609 73.5665 22.7526 73.4455 22.5541 73.2741C22.5035 73.2313 22.4646 73.1825 22.4373 73.1278C22.41 73.0732 22.3965 73.0187 22.3965 72.9641C22.3965 72.8744 22.4275 72.7963 22.4899 72.7301C22.5561 72.6599 22.6377 72.6249 22.7351 72.6249C22.8091 72.6249 22.8753 72.6483 22.9336 72.6951C23.0816 72.816 23.2277 72.9076 23.3715 72.97C23.5196 73.0323 23.7006 73.0635 23.9147 73.0635C24.0588 73.0635 24.1911 73.0421 24.3119 72.9993C24.4326 72.9525 24.5298 72.8919 24.6038 72.818C24.6778 72.7399 24.7147 72.6522 24.7147 72.5547C24.7147 72.4377 24.6798 72.3383 24.6097 72.2565C24.5396 72.1745 24.4326 72.1063 24.2885 72.0518C24.1444 71.9932 23.9615 71.9484 23.7396 71.9171C23.5294 71.8861 23.3445 71.8393 23.1849 71.7767C23.0251 71.7105 22.8908 71.6287 22.7818 71.5312C22.6768 71.4297 22.5969 71.313 22.5423 71.1802C22.488 71.0438 22.4607 70.8918 22.4607 70.7241C22.4607 70.4707 22.5249 70.2542 22.6535 70.0749C22.7858 69.8956 22.9628 69.7592 23.1849 69.6656C23.4067 69.572 23.6519 69.5252 23.9206 69.5252C24.1737 69.5252 24.4073 69.5641 24.6213 69.6422C24.8394 69.7161 25.0164 69.8117 25.1527 69.9286C25.2658 70.0183 25.3221 70.1217 25.3221 70.2387C25.3221 70.3244 25.2891 70.4025 25.2228 70.4727C25.1566 70.5428 25.0789 70.5778 24.9894 70.5778C24.9308 70.5778 24.8782 70.5603 24.8315 70.5254C24.7693 70.4707 24.6857 70.42 24.5804 70.3732C24.4754 70.3224 24.3645 70.2816 24.2477 70.2503C24.1309 70.2153 24.0217 70.1978 23.9206 70.1978C23.7532 70.1978 23.611 70.2192 23.4942 70.2621C23.3814 70.3049 23.2958 70.3635 23.2373 70.4375C23.179 70.5116 23.1497 70.5973 23.1497 70.6948C23.1497 70.8118 23.1829 70.9093 23.2491 70.9874C23.3191 71.0613 23.4183 71.1219 23.5469 71.1686C23.6752 71.2115 23.8292 71.2504 24.0082 71.2856C24.2418 71.3285 24.4462 71.3792 24.6213 71.4376C24.8005 71.4962 24.9483 71.5721 25.0651 71.6657C25.1819 71.7553 25.2695 71.8703 25.328 72.0107C25.3863 72.1471 25.4155 72.3149 25.4155 72.5138C25.4155 72.7673 25.3455 72.9855 25.2053 73.1687C25.0651 73.352 24.8802 73.4923 24.6505 73.5899C24.4248 73.6874 24.1796 73.7361 23.9147 73.7361ZM28.3453 70.5487C28.4464 70.5487 28.5302 70.5837 28.5964 70.6539C28.6625 70.7202 28.6957 70.8039 28.6957 70.9054V72.3909C28.6957 72.8042 28.5809 73.1318 28.351 73.3736C28.1213 73.6152 27.7905 73.7361 27.3582 73.7361C26.9262 73.7361 26.5952 73.6152 26.3655 73.3736C26.1397 73.1318 26.0269 72.8042 26.0269 72.3909V70.9054C26.0269 70.8039 26.06 70.7202 26.1262 70.6539C26.1923 70.5837 26.276 70.5487 26.3773 70.5487C26.4784 70.5487 26.5622 70.5837 26.6284 70.6539C26.6945 70.7202 26.7277 70.8039 26.7277 70.9054V72.3909C26.7277 72.6288 26.7801 72.8062 26.8853 72.9232C26.9903 73.0362 27.1482 73.0928 27.3582 73.0928C27.5724 73.0928 27.732 73.0362 27.8372 72.9232C27.9423 72.8062 27.9949 72.6288 27.9949 72.3909V70.9054C27.9949 70.8039 28.0278 70.7202 28.0942 70.6539C28.1604 70.5837 28.244 70.5487 28.3453 70.5487ZM31.072 70.4901C31.3445 70.4901 31.5877 70.5603 31.8019 70.7007C32.02 70.8372 32.1912 71.0263 32.3158 71.2679C32.4442 71.5098 32.5084 71.7905 32.5084 72.1102C32.5084 72.4299 32.4442 72.7126 32.3158 72.9581C32.1912 73.2 32.0217 73.3911 31.8078 73.5315C31.5975 73.6679 31.36 73.7361 31.0951 73.7361C30.9395 73.7361 30.7936 73.7108 30.6572 73.66C30.5209 73.6093 30.4004 73.545 30.2952 73.467C30.1939 73.3891 30.1142 73.3111 30.0557 73.2332C30.0013 73.1512 29.974 73.083 29.974 73.0283L30.155 72.9525V74.4905C30.155 74.592 30.122 74.6757 30.0557 74.742C29.9895 74.8122 29.9059 74.8474 29.8046 74.8474C29.7035 74.8474 29.6197 74.8141 29.5535 74.7479C29.4874 74.6816 29.4542 74.5959 29.4542 74.4905V70.9054C29.4542 70.8039 29.4874 70.7202 29.5535 70.6539C29.6197 70.5837 29.7035 70.5487 29.8046 70.5487C29.9059 70.5487 29.9895 70.5837 30.0557 70.6539C30.122 70.7202 30.155 70.8039 30.155 70.9054V71.192L30.0557 71.1393C30.0557 71.0886 30.083 71.0283 30.1376 70.9581C30.1921 70.884 30.2659 70.8118 30.3594 70.7416C30.4528 70.6675 30.56 70.6071 30.6805 70.5603C30.8052 70.5135 30.9355 70.4901 31.072 70.4901ZM30.9842 71.1334C30.8131 71.1334 30.6631 71.1763 30.5347 71.2622C30.4061 71.3479 30.305 71.4649 30.231 71.6132C30.1609 71.7573 30.1258 71.923 30.1258 72.1102C30.1258 72.2934 30.1609 72.4611 30.231 72.6131C30.305 72.7614 30.4061 72.8783 30.5347 72.9641C30.6631 73.0498 30.8131 73.0928 30.9842 73.0928C31.1556 73.0928 31.3034 73.0498 31.4281 72.9641C31.5567 72.8783 31.6558 72.7614 31.7259 72.6131C31.7999 72.4611 31.8368 72.2934 31.8368 72.1102C31.8368 71.923 31.7999 71.7573 31.7259 71.6132C31.6558 71.4649 31.5567 71.3479 31.4281 71.2622C31.3034 71.1763 31.1556 71.1334 30.9842 71.1334ZM34.7388 70.4901C35.0113 70.4901 35.2547 70.5603 35.4687 70.7007C35.6868 70.8372 35.8582 71.0263 35.9827 71.2679C36.1112 71.5098 36.1754 71.7905 36.1754 72.1102C36.1754 72.4299 36.1112 72.7126 35.9827 72.9581C35.8582 73.2 35.6888 73.3911 35.4746 73.5315C35.2643 73.6679 35.027 73.7361 34.7622 73.7361C34.6065 73.7361 34.4605 73.7108 34.3242 73.66C34.188 73.6093 34.0673 73.545 33.9622 73.467C33.8609 73.3891 33.781 73.3111 33.7227 73.2332C33.6681 73.1512 33.6411 73.083 33.6411 73.0283L33.8221 72.9525V74.4905C33.8221 74.592 33.7889 74.6757 33.7227 74.742C33.6566 74.8122 33.5727 74.8474 33.4717 74.8474C33.3703 74.8474 33.2867 74.8141 33.2206 74.7479C33.1544 74.6816 33.1212 74.5959 33.1212 74.4905V70.9054C33.1212 70.8039 33.1544 70.7202 33.2206 70.6539C33.2867 70.5837 33.3703 70.5487 33.4717 70.5487C33.5727 70.5487 33.6566 70.5837 33.7227 70.6539C33.7889 70.7202 33.8221 70.8039 33.8221 70.9054V71.192L33.7227 71.1393C33.7227 71.0886 33.75 71.0283 33.8044 70.9581C33.859 70.884 33.933 70.8118 34.0264 70.7416C34.1199 70.6675 34.2269 70.6071 34.3476 70.5603C34.4723 70.5135 34.6026 70.4901 34.7388 70.4901ZM34.6513 71.1334C34.4799 71.1334 34.3301 71.1763 34.2015 71.2622C34.0731 71.3479 33.9718 71.4649 33.8978 71.6132C33.8277 71.7573 33.7928 71.923 33.7928 72.1102C33.7928 72.2934 33.8277 72.4611 33.8978 72.6131C33.9718 72.7614 34.0731 72.8783 34.2015 72.9641C34.3301 73.0498 34.4799 73.0928 34.6513 73.0928C34.8225 73.0928 34.9705 73.0498 35.0951 72.9641C35.2235 72.8783 35.3229 72.7614 35.3929 72.6131C35.467 72.4611 35.5039 72.2934 35.5039 72.1102C35.5039 71.923 35.467 71.7573 35.3929 71.6132C35.3229 71.4649 35.2235 71.3479 35.0951 71.2622C34.9705 71.1763 34.8225 71.1334 34.6513 71.1334ZM39.8189 72.1161C39.8189 72.4358 39.7471 72.7185 39.603 72.9641C39.4628 73.2059 39.272 73.395 39.0307 73.5315C38.7932 73.6679 38.5264 73.7361 38.2306 73.7361C37.9347 73.7361 37.6662 73.6679 37.4247 73.5315C37.1872 73.395 36.9964 73.2059 36.8525 72.9641C36.7123 72.7185 36.6422 72.4358 36.6422 72.1161C36.6422 71.7964 36.7123 71.5157 36.8525 71.2738C36.9964 71.0283 37.1872 70.8372 37.4247 70.7007C37.6662 70.5603 37.9347 70.4901 38.2306 70.4901C38.5264 70.4901 38.7932 70.5603 39.0307 70.7007C39.272 70.8372 39.4628 71.0283 39.603 71.2738C39.7471 71.5157 39.8189 71.7964 39.8189 72.1161ZM39.1183 72.1161C39.1183 71.9171 39.0772 71.7457 38.9956 71.6014C38.9176 71.4531 38.8107 71.3381 38.6744 71.2563C38.5421 71.1743 38.3941 71.1334 38.2306 71.1334C38.067 71.1334 37.9173 71.1743 37.781 71.2563C37.6485 71.3381 37.5415 71.4531 37.4596 71.6014C37.3819 71.7457 37.3431 71.9171 37.3431 72.1161C37.3431 72.3109 37.3819 72.4826 37.4596 72.6308C37.5415 72.7749 37.6485 72.888 37.781 72.97C37.9173 73.0517 38.067 73.0928 38.2306 73.0928C38.3941 73.0928 38.5421 73.0517 38.6744 72.97C38.8107 72.888 38.9176 72.7749 38.9956 72.6308C39.0772 72.4826 39.1183 72.3109 39.1183 72.1161ZM40.7826 73.6775C40.6815 73.6775 40.5977 73.6445 40.5315 73.5783C40.4654 73.5081 40.4324 73.4221 40.4324 73.3209V70.9054C40.4324 70.8039 40.4654 70.7202 40.5315 70.6539C40.5977 70.5837 40.6815 70.5487 40.7826 70.5487C40.8839 70.5487 40.9675 70.5837 41.0339 70.6539C41.1001 70.7202 41.133 70.8039 41.133 70.9054V71.4551L41.0922 71.0633C41.135 70.9697 41.1896 70.8879 41.2557 70.8177C41.3258 70.7436 41.4038 70.6832 41.4893 70.6364C41.5749 70.5857 41.6664 70.5488 41.7638 70.5254C41.8612 70.502 41.9585 70.4901 42.0557 70.4901C42.1725 70.4901 42.2699 70.5234 42.3478 70.5896C42.4295 70.6559 42.4703 70.734 42.4703 70.8236C42.4703 70.9522 42.4373 71.0458 42.3712 71.1044C42.305 71.1588 42.233 71.1861 42.155 71.1861C42.081 71.1861 42.0129 71.1726 41.9507 71.1453C41.8922 71.1179 41.824 71.1044 41.7463 71.1044C41.6762 71.1044 41.6042 71.1219 41.5302 71.1568C41.4601 71.1881 41.3939 71.2388 41.3317 71.309C41.2732 71.3792 41.2245 71.4669 41.1856 71.5721C41.1505 71.6735 41.133 71.7944 41.133 71.9348V73.3209C41.133 73.4221 41.1001 73.5081 41.0339 73.5783C40.9675 73.6445 40.8839 73.6775 40.7826 73.6775ZM42.9995 70.6071H44.3835C44.477 70.6071 44.5547 70.6384 44.6171 70.7007C44.6793 70.763 44.7106 70.8411 44.7106 70.9347C44.7106 71.0243 44.6793 71.1004 44.6171 71.1627C44.5547 71.2211 44.477 71.2504 44.3835 71.2504H42.9995C42.9061 71.2504 42.8281 71.2194 42.7659 71.1568C42.7035 71.0945 42.6725 71.0165 42.6725 70.9229C42.6725 70.8332 42.7035 70.7591 42.7659 70.7007C42.8281 70.6384 42.9061 70.6071 42.9995 70.6071ZM43.6244 69.8762C43.7255 69.8762 43.8073 69.9111 43.8696 69.9813C43.9357 70.0476 43.9689 70.1315 43.9689 70.2328V72.8355C43.9689 72.8899 43.9785 72.9348 43.9979 72.97C44.0213 73.0049 44.0506 73.0303 44.0857 73.0461C44.1246 73.0616 44.1654 73.0694 44.2082 73.0694C44.2549 73.0694 44.2977 73.0616 44.3368 73.0461C44.3756 73.0266 44.4204 73.0168 44.4711 73.0168C44.5256 73.0168 44.5741 73.0421 44.6171 73.0928C44.6638 73.1434 44.6872 73.2135 44.6872 73.3034C44.6872 73.4125 44.6267 73.5022 44.506 73.5724C44.3892 73.6426 44.2628 73.6775 44.1265 73.6775C44.0447 73.6775 43.9532 73.6719 43.8521 73.66C43.7547 73.6445 43.6613 73.6113 43.5718 73.5606C43.4862 73.5061 43.4141 73.4241 43.3556 73.315C43.2973 73.2059 43.2681 73.0557 43.2681 72.8646V70.2328C43.2681 70.1315 43.301 70.0476 43.3674 69.9813C43.4375 69.9111 43.5231 69.8762 43.6244 69.8762ZM49.3031 72.9934C49.4044 72.9934 49.488 73.0266 49.5542 73.0928C49.6243 73.1552 49.6594 73.2369 49.6594 73.3384C49.6594 73.4359 49.6243 73.5177 49.5542 73.584C49.488 73.6465 49.4044 73.6775 49.3031 73.6775H47.4052C47.3041 73.6775 47.2183 73.6445 47.1482 73.5783C47.0821 73.5081 47.0491 73.4221 47.0491 73.3209V69.9404C47.0491 69.839 47.084 69.7552 47.1541 69.689C47.2242 69.6188 47.3137 69.5836 47.4226 69.5836C47.5161 69.5836 47.598 69.6188 47.668 69.689C47.7421 69.7552 47.779 69.839 47.779 69.9404V73.0928L47.6506 72.9934H49.3031ZM51.7414 73.7361C51.4104 73.7361 51.1224 73.6679 50.877 73.5315C50.6358 73.3911 50.4489 73.202 50.3164 72.9641C50.188 72.7262 50.1238 72.4572 50.1238 72.157C50.1238 71.806 50.1939 71.5078 50.3341 71.2622C50.4779 71.0125 50.6648 70.8216 50.8945 70.6889C51.1244 70.5564 51.3676 70.4901 51.6246 70.4901C51.8231 70.4901 52.01 70.531 52.1853 70.613C52.3643 70.6948 52.5219 70.8079 52.6582 70.9522C52.7944 71.0926 52.9016 71.2563 52.9793 71.4435C53.0612 71.6307 53.102 71.8294 53.102 72.04C53.0981 72.1336 53.0612 72.2097 52.9911 72.2681C52.921 72.3267 52.8392 72.3557 52.7457 72.3557H50.5151L50.3397 71.7711H52.4831L52.3545 71.888V71.7299C52.3468 71.6169 52.3058 71.5157 52.232 71.426C52.1619 71.3361 52.0724 71.2662 51.9632 71.2154C51.8582 71.1608 51.7453 71.1334 51.6246 71.1334C51.5078 71.1334 51.3988 71.1492 51.2975 71.1802C51.1962 71.2115 51.1087 71.2642 51.0347 71.3381C50.9609 71.4122 50.9024 71.5117 50.8596 71.6366C50.8168 71.7612 50.7954 71.9191 50.7954 72.1102C50.7954 72.3208 50.8382 72.5001 50.9238 72.6483C51.0133 72.7926 51.1262 72.9037 51.2626 72.9816C51.4028 73.0557 51.5506 73.0928 51.7063 73.0928C51.8504 73.0928 51.9652 73.081 52.0508 73.0576C52.1366 73.0342 52.2047 73.0069 52.2554 72.9759C52.3097 72.9407 52.3584 72.9114 52.4012 72.888C52.4713 72.853 52.5374 72.8355 52.5999 72.8355C52.6855 72.8355 52.7555 72.8646 52.8101 72.9232C52.8684 72.9816 52.8977 73.0498 52.8977 73.1278C52.8977 73.2332 52.8431 73.3286 52.7341 73.4145C52.6328 73.5002 52.4907 73.5763 52.3078 73.6426C52.1248 73.7049 51.9359 73.7361 51.7414 73.7361ZM53.5332 73.1921C53.4944 73.1377 53.4769 73.0675 53.4806 72.9816C53.4845 72.8958 53.5352 72.8217 53.6326 72.7594C53.6948 72.7205 53.7609 72.7047 53.831 72.7126C53.9011 72.7165 53.9692 72.7515 54.0354 72.818C54.1485 72.931 54.267 73.0187 54.3917 73.081C54.5164 73.1434 54.672 73.1746 54.8589 73.1746C54.9172 73.1707 54.9816 73.163 55.0515 73.1512C55.1216 73.1357 55.1821 73.1044 55.2327 73.0576C55.2871 73.0069 55.3144 72.931 55.3144 72.8296C55.3144 72.7439 55.2851 72.6756 55.2268 72.6249C55.1683 72.5742 55.0906 72.5313 54.9932 72.4961C54.8998 72.4611 54.7947 72.4279 54.6779 72.3969C54.5572 72.3616 54.4325 72.3227 54.3042 72.2799C54.1795 72.237 54.0646 72.1824 53.9596 72.1161C53.8544 72.0459 53.7688 71.9543 53.7027 71.8412C53.6365 71.7282 53.6033 71.5859 53.6033 71.4142C53.6033 71.2194 53.6579 71.0536 53.7668 70.9172C53.8758 70.7805 54.016 70.6754 54.1873 70.6012C54.3624 70.5271 54.5454 70.4901 54.7362 70.4901C54.857 70.4901 54.9834 70.5057 55.1159 70.5369C55.2482 70.5643 55.3748 70.6111 55.4954 70.6773C55.6161 70.7396 55.7174 70.8236 55.7991 70.9288C55.8418 70.9874 55.8672 71.0576 55.875 71.1393C55.8829 71.2211 55.8458 71.2952 55.7641 71.3615C55.7056 71.4083 55.6375 71.4297 55.5598 71.426C55.4818 71.4181 55.4176 71.3908 55.367 71.344C55.3008 71.2583 55.2113 71.1901 55.0982 71.1393C54.9893 71.0886 54.8629 71.0633 54.7188 71.0633C54.6602 71.0633 54.5961 71.0711 54.526 71.0866C54.4598 71.0985 54.4015 71.1278 54.3509 71.1743C54.3002 71.2174 54.2749 71.2876 54.2749 71.3849C54.2749 71.4748 54.3042 71.5467 54.3624 71.6014C54.421 71.6521 54.4987 71.695 54.5961 71.7299C54.6974 71.7612 54.8043 71.7925 54.9172 71.8235C55.034 71.8548 55.1528 71.892 55.2735 71.9348C55.3943 71.9777 55.5052 72.0341 55.6063 72.1043C55.7076 72.1745 55.7894 72.2661 55.8517 72.3791C55.9139 72.4885 55.9451 72.6289 55.9451 72.8003C55.9451 72.9993 55.8866 73.1687 55.7698 73.3091C55.653 73.4495 55.5071 73.5568 55.3318 73.6307C55.1567 73.7009 54.9777 73.7361 54.7947 73.7361C54.5651 73.7361 54.3352 73.6972 54.1055 73.6192C53.8758 73.5372 53.6852 73.395 53.5332 73.1921ZM56.3505 73.1921C56.3115 73.1377 56.294 73.0675 56.2979 72.9816C56.3019 72.8958 56.3525 72.8217 56.4497 72.7594C56.5121 72.7205 56.5783 72.7047 56.6483 72.7126C56.7184 72.7165 56.7866 72.7515 56.8527 72.818C56.9656 72.931 57.0844 73.0187 57.209 73.081C57.3335 73.1434 57.4891 73.1746 57.676 73.1746C57.7345 73.1707 57.7987 73.163 57.8688 73.1512C57.9389 73.1357 57.9992 73.1044 58.0498 73.0576C58.1044 73.0069 58.1317 72.931 58.1317 72.8296C58.1317 72.7439 58.1024 72.6756 58.0439 72.6249C57.9856 72.5742 57.9077 72.5313 57.8105 72.4961C57.7171 72.4611 57.6118 72.4279 57.495 72.3969C57.3743 72.3616 57.2498 72.3227 57.1212 72.2799C56.9968 72.237 56.882 72.1824 56.7767 72.1161C56.6717 72.0459 56.5861 71.9543 56.5197 71.8412C56.4536 71.7282 56.4206 71.5859 56.4206 71.4142C56.4206 71.2194 56.475 71.0536 56.5842 70.9172C56.6931 70.7805 56.8333 70.6754 57.0044 70.6012C57.1798 70.5271 57.3627 70.4901 57.5535 70.4901C57.6741 70.4901 57.8007 70.5057 57.933 70.5369C58.0655 70.5643 58.1919 70.6111 58.3127 70.6773C58.4334 70.7396 58.5345 70.8236 58.6164 70.9288C58.6592 70.9874 58.6845 71.0576 58.6921 71.1393C58.7 71.2211 58.6631 71.2952 58.5812 71.3615C58.5229 71.4083 58.4548 71.4297 58.3769 71.426C58.2989 71.4181 58.2347 71.3908 58.1841 71.344C58.1179 71.2583 58.0284 71.1901 57.9155 71.1393C57.8066 71.0886 57.68 71.0633 57.5359 71.0633C57.4776 71.0633 57.4134 71.0711 57.3433 71.0866C57.2771 71.0985 57.2186 71.1278 57.168 71.1743C57.1175 71.2174 57.0922 71.2876 57.0922 71.3849C57.0922 71.4748 57.1212 71.5467 57.1798 71.6014C57.2381 71.6521 57.316 71.695 57.4134 71.7299C57.5145 71.7612 57.6217 71.7925 57.7345 71.8235C57.8513 71.8548 57.9701 71.892 58.0906 71.9348C58.2114 71.9777 58.3223 72.0341 58.4236 72.1043C58.5249 72.1745 58.6065 72.2661 58.6688 72.3791C58.7312 72.4885 58.7622 72.6289 58.7622 72.8003C58.7622 72.9993 58.7039 73.1687 58.5871 73.3091C58.4703 73.4495 58.3242 73.5568 58.1491 73.6307C57.9738 73.7009 57.7948 73.7361 57.6118 73.7361C57.3822 73.7361 57.1525 73.6972 56.9228 73.6192C56.6931 73.5372 56.5023 73.395 56.3505 73.1921ZM62.3795 72.1161C62.3795 72.4358 62.3074 72.7185 62.1636 72.9641C62.0234 73.2059 61.8326 73.395 61.5911 73.5315C61.3538 73.6679 61.087 73.7361 60.7911 73.7361C60.4953 73.7361 60.2265 73.6679 59.9853 73.5315C59.7477 73.395 59.5569 73.2059 59.413 72.9641C59.2729 72.7185 59.2028 72.4358 59.2028 72.1161C59.2028 71.7964 59.2729 71.5157 59.413 71.2738C59.5569 71.0283 59.7477 70.8372 59.9853 70.7007C60.2265 70.5603 60.4953 70.4901 60.7911 70.4901C61.087 70.4901 61.3538 70.5603 61.5911 70.7007C61.8326 70.8372 62.0234 71.0283 62.1636 71.2738C62.3074 71.5157 62.3795 71.7964 62.3795 72.1161ZM61.6789 72.1161C61.6789 71.9171 61.6378 71.7457 61.5562 71.6014C61.4782 71.4531 61.3712 71.3381 61.235 71.2563C61.1027 71.1743 60.9547 71.1334 60.7911 71.1334C60.6276 71.1334 60.4778 71.1743 60.3414 71.2563C60.2091 71.3381 60.1021 71.4531 60.0202 71.6014C59.9425 71.7457 59.9034 71.9171 59.9034 72.1161C59.9034 72.3109 59.9425 72.4826 60.0202 72.6308C60.1021 72.7749 60.2091 72.888 60.3414 72.97C60.4778 73.0517 60.6276 73.0928 60.7911 73.0928C60.9547 73.0928 61.1027 73.0517 61.235 72.97C61.3712 72.888 61.4782 72.7749 61.5562 72.6308C61.6378 72.4826 61.6789 72.3109 61.6789 72.1161ZM64.663 70.4901C64.9512 70.4901 65.1691 70.5505 65.3171 70.6714C65.4688 70.7923 65.5721 70.9541 65.6267 71.1568C65.685 71.3558 65.7142 71.578 65.7142 71.8235V73.3209C65.7142 73.4221 65.681 73.5081 65.6149 73.5783C65.5487 73.6445 65.4651 73.6775 65.3638 73.6775C65.2625 73.6775 65.1789 73.6445 65.1127 73.5783C65.0466 73.5081 65.0134 73.4221 65.0134 73.3209V71.8235C65.0134 71.695 64.9959 71.5799 64.9608 71.4785C64.9298 71.3733 64.8713 71.2896 64.7857 71.227C64.7001 71.1647 64.5774 71.1334 64.4178 71.1334C64.2621 71.1334 64.1296 71.1647 64.0207 71.227C63.9156 71.2896 63.8338 71.3733 63.7755 71.4785C63.7209 71.5799 63.6936 71.695 63.6936 71.8235V73.3209C63.6936 73.4221 63.6606 73.5081 63.5943 73.5783C63.5281 73.6445 63.4445 73.6775 63.3432 73.6775C63.2421 73.6775 63.1583 73.6445 63.0921 73.5783C63.026 73.5081 62.9928 73.4221 62.9928 73.3209V70.9054C62.9928 70.8039 63.026 70.7202 63.0921 70.6539C63.1583 70.5837 63.2421 70.5487 63.3432 70.5487C63.4445 70.5487 63.5281 70.5837 63.5943 70.6539C63.6606 70.7202 63.6936 70.8039 63.6936 70.9054V71.1568L63.606 71.1393C63.641 71.0731 63.6916 71.0029 63.7578 70.9288C63.8242 70.8507 63.9019 70.7788 63.9914 70.7123C64.0809 70.646 64.1822 70.5936 64.2951 70.5544C64.408 70.5116 64.5307 70.4901 64.663 70.4901Z" fill="#2980B9"/>
</svg>
